<!DOCTYPE svg PUBLIC "-//W3C//DTD SVG 20010904//EN" "http://www.w3.org/TR/2001/REC-SVG-20010904/DTD/svg10.dtd">
<svg version="1.0" xmlns="http://www.w3.org/2000/svg" width="411px" height="249px" viewBox="0 0 4110 2490" preserveAspectRatio="xMidYMid meet">
<g id="layer1" fill="#474747" stroke="none">
 <path d="M4100 2357 c0 -74 -3 -137 -7 -141 -4 -4 -14 8 -23 26 -11 23 -22 33 -38 32 -25 -1 -38 31 -27 66 6 20 8 21 26 4 10 -9 19 -12 19 -7 0 17 -29 36 -45 29 -9 -3 -15 -18 -15 -35 0 -31 -3 -32 -45 -15 -11 5 -31 9 -45 10 -36 2 -70 15 -70 25 0 5 -7 9 -16 9 -14 0 -16 -8 -11 -45 5 -52 14 -66 27 -45 7 11 10 8 10 -14 0 -35 16 -25 23 14 3 18 5 14 6 -14 1 -35 3 -38 26 -34 17 4 25 1 25 -8 0 -9 11 -14 28 -14 21 0 32 -7 40 -25 12 -26 27 -32 37 -14 11 17 47 -60 39 -84 -4 -12 -6 -40 -5 -62 2 -57 -27 -109 -61 -111 -16 0 -28 3 -28 8 0 5 -4 6 -10 3 -5 -3 -46 24 -91 61 -77 63 -81 65 -76 38 3 -16 10 -50 15 -76 l9 -48 -43 38 c-23 20 -45 45 -49 55 -3 9 -11 15 -16 12 -5 -4 -9 -1 -9 6 0 7 -11 26 -24 43 -13 17 -26 41 -30 54 -8 25 -21 29 -29 8 -10 -25 45 -161 91 -226 9 -13 11 -21 5 -17 -7 5 -32 40 -55 80 -47 78 -57 73 -33 -18 8 -32 13 -60 11 -62 -2 -2 -13 7 -24 21 -30 39 -35 31 -11 -16 26 -52 113 -138 139 -138 10 0 20 -4 22 -10 2 -5 14 -11 28 -14 14 -2 25 -5 25 -6 0 -1 8 -3 17 -5 9 -2 32 -8 50 -13 39 -12 69 -12 83 -1 6 4 17 4 24 -1 20 -12 44 -1 32 14 -8 9 -2 12 19 10 20 -1 30 3 30 12 0 10 -13 13 -57 10 -51 -4 -65 -1 -120 30 -77 43 -168 125 -194 176 -11 21 -17 38 -13 38 3 0 35 -30 71 -66 62 -63 123 -101 143 -89 5 3 12 1 15 -5 5 -8 11 -8 19 -1 7 6 16 8 20 4 4 -4 11 -1 16 7 6 9 21 14 40 12 21 -3 30 1 30 11 0 10 8 13 24 10 17 -4 27 1 34 14 10 18 17 623 7 623 -3 0 -5 -60 -5 -133z m-283 -44 c-4 -3 -7 0 -7 7 0 7 3 10 7 7 3 -4 3 -10 0 -14z m258 -138 c24 0 32 -30 10 -39 -12 -4 -21 5 -35 37 -11 23 -19 53 -19 67 0 16 5 10 12 -20 9 -34 17 -45 32 -45z m-78 53 c-3 -8 -6 -5 -6 6 -1 11 2 17 5 13 3 -3 4 -12 1 -19z m10 -40 c-3 -8 -6 -5 -6 6 -1 11 2 17 5 13 3 -3 4 -12 1 -19z m-327 -188 c6 -11 8 -20 6 -20 -3 0 -10 9 -16 20 -6 11 -8 20 -6 20 3 0 10 -9 16 -20z m84 -182 c18 -18 43 -41 56 -51 12 -10 19 -21 16 -24 -6 -6 -82 57 -103 86 -21 31 -7 25 31 -11z"/>
 <path d="M500 2462 c0 -17 115 -95 187 -126 105 -45 291 -105 377 -121 171 -34 271 -57 276 -65 3 -4 4 -44 2 -89 -3 -62 -7 -81 -18 -81 -8 0 -14 5 -14 11 0 5 5 7 12 3 8 -5 9 -2 3 12 -4 10 -12 42 -16 69 -7 50 -7 49 -6 -15 l2 -65 -99 -2 c-133 -3 -235 -26 -323 -75 -40 -21 -75 -44 -79 -49 -4 -6 -13 -3 -24 9 -15 16 -28 19 -67 15 -81 -9 -134 -57 -173 -159 -11 -32 -25 -50 -36 -52 -33 -5 -99 -25 -111 -35 -18 -13 -25 -8 -82 60 -77 94 -132 114 -199 73 -36 -22 -68 -79 -58 -105 6 -16 17 -17 107 -10 l100 7 40 -41 c21 -23 42 -54 45 -69 12 -49 30 -61 86 -56 28 3 56 0 63 -6 18 -15 75 1 89 24 11 17 1 30 -43 55 -28 16 0 33 43 26 56 -10 119 -48 133 -82 6 -15 14 -98 18 -183 4 -89 13 -169 20 -187 14 -33 95 -88 148 -100 53 -11 22 -28 -59 -31 -117 -4 -221 -28 -230 -54 -13 -43 15 -53 164 -56 90 -3 139 -8 144 -15 12 -18 9 -125 -3 -132 -6 -4 -8 -13 -5 -21 4 -11 -6 -14 -44 -14 -27 0 -51 3 -53 8 -3 4 -1 29 3 57 7 47 -3 95 -20 95 -4 0 -19 -10 -34 -21 -15 -12 -30 -19 -33 -15 -3 3 -12 1 -20 -5 -15 -14 -17 -72 -3 -100 10 -18 7 -19 -83 -19 -71 0 -98 -4 -107 -15 -20 -24 -8 -50 25 -53 17 -2 34 -8 40 -13 5 -5 19 -9 32 -9 29 0 29 -9 -2 -70 -31 -61 -33 -125 -5 -160 11 -14 20 -27 20 -30 0 -12 -62 -3 -70 10 -13 21 -44 0 -48 -33 -8 -69 86 -146 178 -147 14 0 38 -9 54 -19 16 -11 36 -17 45 -14 45 16 68 64 36 76 -8 4 -21 22 -30 42 -8 20 -24 39 -35 42 -26 7 -25 15 1 39 43 38 63 102 63 201 l0 93 35 0 c20 -1 47 -7 61 -15 37 -21 87 -19 102 5 9 14 24 20 51 20 35 0 37 -2 27 -20 -6 -12 -10 -33 -8 -48 l3 -27 92 0 c105 1 123 10 105 49 -10 23 -8 27 18 43 17 9 30 23 30 30 0 19 -17 16 -29 -4 -10 -17 -10 -17 -11 0 0 17 -11 22 -23 10 -4 -3 -2 -12 4 -20 9 -10 7 -13 -9 -13 -15 0 -19 5 -15 18 2 10 -2 24 -10 31 -12 9 -13 18 -4 40 19 51 -12 84 -59 63 -26 -12 -34 -58 -13 -79 12 -12 -33 -21 -107 -22 -37 -1 -41 2 -52 32 -7 19 -12 58 -12 89 l0 55 49 2 c73 2 182 18 213 30 37 14 37 48 1 62 -15 6 -76 15 -135 21 -59 7 -105 15 -103 18 2 4 18 5 35 2 16 -2 36 0 43 6 7 6 114 10 274 10 l261 0 5 -24 c5 -27 0 -28 -37 -14 -16 6 -26 6 -26 0 0 -5 -7 -7 -16 -3 -14 5 -15 3 -4 -18 8 -13 19 -28 25 -34 7 -5 15 -18 19 -28 5 -15 2 -17 -14 -12 -29 9 -24 -12 6 -28 19 -10 23 -16 14 -22 -7 -4 -16 -2 -21 6 -4 7 -11 10 -15 6 -8 -8 51 -67 67 -67 5 0 9 -8 7 -17 -2 -15 4 -18 36 -17 34 1 37 0 23 -11 -21 -15 -10 -27 14 -15 12 7 20 7 24 0 4 -6 11 -8 16 -5 5 4 19 8 31 10 12 3 25 10 29 16 5 8 8 8 13 0 4 -6 4 -16 1 -21 -12 -20 11 -9 42 19 55 50 60 36 67 -206 3 -117 9 -244 12 -283 l7 -70 -99 -1 c-54 0 -169 -2 -255 -5 -106 -4 -159 -2 -163 5 -11 18 -8 409 4 430 5 11 10 38 10 60 0 38 2 41 28 41 52 0 55 10 27 93 -14 41 -25 82 -25 91 0 21 -32 36 -77 36 -67 0 -74 -13 -107 -207 -6 -37 6 -50 27 -28 24 24 38 18 31 -11 -5 -19 -4 -25 5 -20 6 4 11 1 11 -8 0 -10 -6 -13 -15 -10 -10 4 -15 0 -15 -11 0 -11 5 -15 14 -12 8 3 21 -2 30 -12 14 -15 16 -49 16 -224 0 -139 -4 -208 -11 -213 -6 -3 -9 -19 -5 -35 5 -24 2 -28 -21 -31 -33 -4 -52 -32 -37 -55 14 -23 63 -35 94 -24 31 12 475 25 491 15 15 -9 131 -10 146 -1 6 4 104 9 219 12 225 5 248 10 225 54 -7 11 -21 21 -32 21 -16 0 -18 5 -13 27 4 16 7 29 8 30 8 10 505 253 518 253 10 0 18 5 18 10 0 6 11 16 25 22 34 15 32 24 -11 46 -23 12 -33 22 -26 26 7 4 29 -6 49 -21 32 -24 46 -28 93 -27 36 2 54 6 52 14 -2 8 5 9 19 5 19 -6 21 -4 16 14 -6 23 0 26 23 11 10 -6 24 -3 46 11 20 12 49 19 82 19 34 0 57 6 73 19 27 21 59 13 59 -16 0 -8 14 -40 31 -70 17 -29 28 -61 25 -69 -7 -19 37 -110 73 -147 15 -17 26 -40 26 -56 0 -21 12 -39 51 -72 28 -24 64 -59 79 -76 15 -18 36 -33 47 -33 17 0 19 4 13 30 -4 17 -12 68 -19 114 -8 51 -19 90 -29 101 -33 33 -33 103 -1 111 13 3 29 13 37 22 18 21 29 86 16 99 -5 5 -11 63 -14 128 -3 66 -9 176 -15 245 -5 69 -10 176 -10 238 0 82 -4 121 -16 143 -8 16 -12 39 -9 49 4 13 -1 22 -15 30 -11 6 -20 8 -20 5 0 -4 -7 1 -16 9 -8 9 -24 16 -34 16 -20 0 -44 -32 -33 -44 3 -3 -6 -6 -20 -6 -35 0 -35 -18 1 -22 18 -2 -47 -28 -198 -78 -274 -91 -258 -87 -240 -65 21 25 60 41 110 44 54 3 61 8 36 27 -12 8 -44 14 -81 14 -77 0 -119 -25 -155 -92 l-24 -46 -141 -43 c-77 -23 -205 -64 -284 -91 -80 -26 -146 -46 -148 -44 -2 2 4 34 14 71 16 61 22 69 53 84 19 9 36 19 38 23 2 4 15 3 28 -3 37 -14 70 -1 100 38 21 28 31 33 51 28 27 -6 53 9 53 32 0 11 -7 14 -22 10 -35 -10 -58 9 -58 47 0 34 -1 34 -38 29 -27 -4 -42 -1 -51 10 -18 23 -10 60 16 72 35 15 36 35 3 47 -23 8 -30 16 -30 36 0 15 -4 33 -9 41 -8 12 -13 12 -35 -2 -35 -24 -59 -21 -87 9 l-24 25 -17 -21 c-12 -15 -24 -20 -38 -15 -15 5 -22 0 -30 -20 -8 -20 -15 -25 -28 -20 -9 4 -25 9 -34 12 -20 6 -14 28 17 63 13 14 32 44 44 66 12 25 36 52 58 65 21 13 47 32 59 43 58 58 97 83 181 117 86 35 99 44 192 137 l99 99 82 7 81 7 -35 -31 c-39 -35 -61 -108 -50 -166 5 -29 11 -34 42 -40 50 -10 206 2 239 18 35 16 40 47 18 104 -16 44 -84 114 -109 114 -18 0 -26 22 -26 74 0 41 1 43 28 40 31 -3 72 20 72 41 0 32 -49 49 -133 47 -86 -2 -127 -18 -127 -51 0 -26 22 -41 64 -43 20 -1 36 -4 37 -7 4 -34 3 -74 -3 -77 -4 -3 -46 -8 -93 -12 l-85 -8 6 66 c5 62 3 68 -34 130 l-38 65 -62 3 -62 3 0 -36 c0 -39 -4 -42 -26 -20 -19 19 -45 19 -70 1 -17 -13 -18 -18 -6 -48 12 -31 11 -34 -18 -58 -17 -14 -30 -32 -30 -40 0 -25 -36 -40 -116 -50 -96 -12 -422 -22 -371 -11 20 4 40 10 43 14 12 11 -8 43 -43 70 -29 22 -32 27 -16 27 11 0 34 5 52 11 48 17 43 52 -11 81 -39 20 -58 22 -188 22 -217 1 -380 -35 -380 -83 0 -22 34 -41 71 -41 l40 0 -36 -31 c-19 -17 -35 -37 -35 -45 0 -36 -452 29 -699 101 -234 68 -348 113 -429 166 -75 51 -82 54 -82 41z m2415 -102 c3 -5 -1 -10 -9 -10 -9 0 -16 5 -16 10 0 6 4 10 9 10 6 0 13 -4 16 -10z m55 -10 c0 -5 -2 -10 -4 -10 -3 0 -8 5 -11 10 -3 6 -1 10 4 10 6 0 11 -4 11 -10z m-785 -28 c-3 -3 -11 0 -18 7 -9 10 -8 11 6 5 10 -3 15 -9 12 -12z m719 12 c10 -4 16 -18 16 -35 0 -16 5 -29 10 -29 6 0 10 8 10 18 0 9 4 23 9 30 7 11 11 11 24 -2 11 -11 14 -27 10 -58 -3 -24 -10 -44 -14 -46 -5 -2 -9 -8 -9 -14 0 -6 9 -3 20 7 12 10 20 31 20 49 1 27 2 29 11 13 7 -11 8 -38 5 -65 -5 -34 -4 -43 3 -32 15 22 13 -2 -3 -41 -8 -19 -30 -49 -49 -67 -34 -33 -36 -33 -78 -22 -89 24 -168 83 -155 117 3 7 1 15 -4 18 -18 11 -10 31 20 48 32 19 40 53 18 76 -11 10 -8 12 12 9 17 -2 24 -8 22 -20 -1 -10 6 -26 17 -37 19 -19 19 -19 25 5 4 14 11 22 16 19 6 -4 10 9 10 29 0 36 5 41 34 30z m-87 -11 c-4 -3 -10 -3 -14 0 -3 4 0 7 7 7 7 0 10 -3 7 -7z m-582 -31 l30 -9 -28 -12 c-32 -13 -60 -15 -54 -3 3 4 -24 7 -59 8 -61 0 -84 -10 -46 -22 62 -20 123 -48 134 -62 11 -13 9 -14 -17 -8 -33 9 -358 10 -402 1 -21 -4 -16 1 17 17 25 12 54 23 65 24 31 2 65 15 65 25 0 5 11 9 25 9 16 0 25 6 25 16 0 13 -6 15 -27 10 -16 -3 -57 -9 -93 -12 -36 -4 -68 -11 -71 -16 -3 -5 -26 -6 -50 -2 l-44 8 45 14 c93 29 406 38 485 14z m1088 -11 c35 -1 35 -17 0 -25 -17 -5 -29 -3 -35 6 -14 22 -28 -11 -29 -72 l-1 -55 -12 58 c-13 59 -34 94 -43 70 -3 -7 -9 -13 -14 -13 -13 0 -6 24 8 30 12 5 54 5 126 1z m-153 -21 c0 -5 -2 -10 -4 -10 -3 0 -8 5 -11 10 -3 6 -1 10 4 10 6 0 11 -4 11 -10z m-951 -115 c-10 -10 -350 -16 -426 -7 -96 11 -21 17 201 17 152 0 232 -3 225 -10z m496 -5 c10 -33 95 -100 142 -112 32 -8 43 -15 41 -27 -10 -49 -171 21 -212 92 -17 29 -18 37 -7 51 18 21 28 20 36 -4z m-150 -30 c-3 -5 -12 -10 -18 -10 -21 0 -131 -62 -154 -86 -34 -36 -43 -30 -43 31 0 53 0 54 33 60 17 3 64 6 102 8 39 2 74 4 78 5 5 1 5 -2 2 -8z m-684 -14 c-15 -18 -6 -23 44 -27 22 -1 45 -7 52 -12 17 -13 36 2 30 24 -5 17 1 19 43 19 l47 0 7 -58 c4 -32 4 -66 1 -74 -3 -8 11 -49 33 -90 37 -72 38 -74 15 -70 -13 2 -23 -1 -23 -7 0 -6 -7 -11 -15 -11 -8 0 -15 5 -15 10 0 6 -11 10 -25 10 -16 0 -25 -6 -25 -15 0 -8 3 -15 8 -15 4 0 15 -15 25 -33 15 -27 11 -25 -30 18 l-48 50 32 3 c37 4 48 24 24 46 -13 12 -42 16 -127 16 -60 1 -126 6 -148 11 -35 9 -38 13 -32 37 3 15 11 62 18 105 l12 77 54 0 c46 0 53 -2 43 -14z m96 -13 c-4 -3 -7 0 -7 7 0 7 3 10 7 7 3 -4 3 -10 0 -14z m1293 -27 c0 -3 -5 -8 -12 -12 -7 -4 -8 -3 -4 4 7 12 16 16 16 8z m130 -75 c17 -33 12 -36 -49 -33 -33 2 -90 -1 -128 -7 -51 -8 -69 -7 -75 2 -20 32 46 54 164 56 67 1 79 -2 88 -18z m-2346 -56 c-28 -37 -41 -104 -30 -150 10 -41 92 -121 189 -187 48 -32 87 -65 87 -73 0 -8 12 -21 28 -29 15 -8 37 -26 49 -40 13 -14 29 -26 37 -26 8 0 16 -10 18 -22 2 -18 23 -30 110 -63 59 -23 111 -44 115 -49 11 -10 -19 -27 -38 -20 -11 3 -27 -7 -44 -27 -26 -32 -27 -41 -9 -101 5 -16 -2 -17 -63 -14 -37 2 -131 7 -208 10 -77 4 -156 10 -175 13 -19 4 -63 7 -97 7 -44 1 -67 6 -82 20 -11 10 -25 15 -31 11 -20 -13 -59 5 -74 33 -7 15 -20 84 -27 154 -10 104 -10 132 0 152 14 25 11 70 -7 140 -9 33 -8 42 5 51 11 9 13 14 5 19 -7 4 -12 2 -12 -5 0 -10 -3 -10 -11 -2 -7 7 -9 28 -5 57 7 42 11 48 75 90 39 26 96 53 137 65 91 26 89 26 58 -14z m2343 -2 c-4 -3 -19 -7 -34 -9 -167 -15 -193 -16 -193 -6 0 6 15 13 33 15 56 7 201 7 194 0z m-1700 -40 c-4 -3 -10 -3 -14 0 -3 4 0 7 7 7 7 0 10 -3 7 -7z m-21 -47 c-15 -52 -18 -104 -6 -125 6 -13 9 -25 7 -27 -7 -8 -73 22 -82 37 -14 22 -9 93 8 126 16 30 19 31 48 21 25 -8 30 -15 25 -32z m-969 2 c5 -80 1 -194 -7 -202 -5 -5 -31 3 -61 18 -29 14 -61 26 -72 26 -14 0 -17 5 -11 23 17 55 49 109 80 137 46 40 68 39 71 -2z m58 -56 c1 -37 5 -82 9 -99 8 -30 6 -33 -13 -33 -20 0 -22 5 -20 63 1 34 -2 79 -6 99 -8 42 1 66 18 49 6 -6 12 -42 12 -79z m1133 77 c56 1 102 -3 102 -7 0 -4 -20 -6 -45 -4 -28 3 -45 0 -45 -7 0 -6 12 -11 28 -11 21 0 24 -2 12 -10 -13 -9 -13 -11 0 -20 8 -5 24 -10 36 -10 20 0 47 -25 79 -74 30 -45 -6 -32 -52 19 -31 35 -48 45 -74 47 -19 1 -43 2 -54 3 -11 1 -26 5 -33 9 -7 4 -18 6 -25 3 -7 -2 -32 13 -57 34 l-45 39 35 -5 c19 -3 81 -6 138 -6z m-149 -44 c46 -28 60 -45 31 -38 -24 6 -50 -13 -50 -37 0 -26 65 -53 140 -57 36 -2 70 -9 75 -14 7 -7 4 -8 -7 -4 -11 4 -20 -1 -28 -15 -6 -11 -15 -18 -21 -15 -5 4 -14 3 -20 -1 -7 -4 -29 -9 -49 -10 -47 -5 -116 45 -129 92 -8 29 3 124 15 124 2 0 22 -11 43 -25z m-1436 -147 c53 -56 95 -103 93 -105 -2 -2 -39 32 -82 77 -85 87 -134 111 -189 90 -14 -5 -25 -7 -25 -4 0 4 -7 1 -15 -6 -24 -20 -17 4 8 27 23 23 59 33 92 26 11 -2 64 -49 118 -105z m1518 89 c-10 -9 -11 -8 -5 6 3 10 9 15 12 12 3 -3 0 -11 -7 -18z m138 -17 c33 -18 70 -65 62 -78 -6 -11 -16 -7 -43 17 -20 17 -46 31 -60 31 -28 0 -71 27 -63 40 6 10 81 3 104 -10z m158 13 c-4 -3 -10 -3 -14 0 -3 4 0 7 7 7 7 0 10 -3 7 -7z m-337 -29 c0 -14 -3 -14 -15 -4 -8 7 -15 14 -15 16 0 2 7 4 15 4 8 0 15 -7 15 -16z m358 -19 c-2 -46 -8 -49 -32 -17 -11 14 -14 22 -8 18 6 -3 16 3 22 14 15 29 20 25 18 -15z m-298 3 c0 -13 -23 -5 -28 10 -2 7 2 10 12 6 9 -3 16 -11 16 -16z m-1655 -7 c-6 -5 -30 -12 -55 -16 -42 -6 -44 -6 -25 9 21 16 96 23 80 7z m2117 -28 c26 -24 22 -33 -14 -32 -31 2 -31 2 -5 6 54 8 15 24 -46 18 -61 -5 -62 -5 -27 9 47 19 70 19 92 -1z m-215 0 c-4 -3 -10 -3 -14 0 -3 4 0 7 7 7 7 0 10 -3 7 -7z m-1587 -28 c0 -18 -48 -31 -62 -17 -8 8 -7 13 3 16 8 2 21 7 29 9 25 9 30 8 30 -8z m141 -22 c38 -21 69 -41 69 -46 0 -4 -25 6 -56 23 -31 16 -72 30 -90 30 -24 0 -34 5 -34 15 0 25 38 17 111 -22z m1111 -9 c18 -5 18 -7 3 -24 -9 -10 -32 -53 -51 -96 l-36 -79 6 113 c3 62 8 117 11 123 3 5 16 0 27 -11 12 -11 30 -22 40 -26z m308 36 c0 -5 -2 -10 -4 -10 -3 0 -8 5 -11 10 -3 6 -1 10 4 10 6 0 11 -4 11 -10z m-133 -17 c-4 -3 -7 0 -7 7 0 7 3 10 7 7 3 -4 3 -10 0 -14z m240 10 c-4 -3 -10 -3 -14 0 -3 4 0 7 7 7 7 0 10 -3 7 -7z m-1387 -57 c0 -26 -4 -32 -24 -34 -19 -1 -22 2 -19 22 3 13 0 27 -6 30 -21 13 -11 23 19 18 26 -4 30 -8 30 -36z m1357 -25 c0 -39 -4 -68 -9 -65 -4 3 -8 13 -8 22 0 9 -11 37 -25 61 -14 23 -25 45 -25 47 0 2 15 4 33 4 l34 0 0 -69z m-1703 7 c3 -15 2 -30 -4 -33 -6 -4 -10 5 -10 20 0 15 -5 36 -11 48 -10 20 -10 20 4 7 8 -8 17 -27 21 -42z m1494 11 c3 -33 0 -37 -40 -55 -23 -10 -45 -19 -48 -19 -7 -1 -75 -62 -121 -109 l-38 -38 11 38 c15 56 72 177 90 192 8 6 29 14 47 16 17 2 35 6 39 10 3 4 18 6 32 4 21 -3 25 -9 28 -39z m140 14 c21 -29 45 -103 37 -112 -3 -2 -5 1 -5 7 0 7 -3 11 -7 10 -33 -7 -77 58 -67 98 8 31 18 30 42 -3z m-1588 -8 c-7 -8 -16 -12 -21 -9 -13 8 -1 24 18 24 13 0 13 -3 3 -15z m-112 -50 c-3 -3 -9 2 -12 12 -6 14 -5 15 5 6 7 -7 10 -15 7 -18z m2165 -36 c-3 -10 0 -19 6 -19 6 0 10 3 10 8 -3 18 3 46 8 35 2 -7 18 -13 34 -13 l29 0 -26 -40 c-15 -22 -30 -40 -34 -40 -4 0 -10 -9 -13 -20 -8 -31 9 -24 40 16 15 20 36 46 47 57 18 22 18 22 2 -5 -9 -15 -12 -29 -7 -33 6 -3 14 2 19 11 7 13 14 14 27 6 16 -8 12 -14 -34 -47 -50 -36 -64 -58 -23 -36 24 13 33 14 30 4 -3 -17 16 -44 39 -57 23 -12 21 -13 -47 -26 -78 -15 -103 -36 -74 -64 20 -20 30 -21 14 -1 -7 9 -10 19 -6 23 7 7 36 -24 36 -39 0 -4 -12 -6 -26 -3 -16 3 -23 1 -19 -6 9 -14 3 -13 -49 10 -25 10 -46 16 -46 13 0 -3 -11 6 -24 22 -13 15 -26 23 -30 17 -3 -5 3 -17 14 -27 11 -10 20 -25 20 -34 0 -12 -3 -12 -12 -3 -7 7 -26 12 -44 12 -39 0 -66 9 -59 20 3 5 1 11 -5 15 -5 3 -10 1 -10 -4 0 -6 -15 -11 -32 -11 -24 0 -29 3 -18 10 12 7 11 13 -9 34 -14 14 -22 29 -19 32 7 6 81 -27 115 -52 13 -9 23 -11 27 -5 4 5 -14 24 -38 41 -27 20 -46 42 -49 58 -8 41 3 46 34 16 16 -15 29 -23 29 -17 0 7 -11 20 -25 31 -28 22 -34 62 -10 62 21 0 64 -47 81 -86 13 -32 93 -108 102 -99 3 3 -7 19 -23 35 -16 17 -26 30 -22 30 9 0 -30 77 -60 117 -31 42 -29 55 4 38 15 -8 30 -12 34 -10 4 3 10 -12 13 -33 12 -65 17 -76 27 -61 9 13 5 69 -8 113 -3 12 -1 16 6 12 6 -4 11 -18 11 -31 0 -13 5 -27 12 -31 8 -5 9 4 5 31 -4 23 -2 44 5 52 14 18 28 -1 21 -28z m-1737 -264 c13 -35 42 -65 93 -95 18 -11 4 -50 -18 -50 -26 0 -84 42 -98 70 -13 27 -26 344 -15 355 4 4 11 -49 15 -117 5 -67 15 -141 23 -163z m1141 278 c-4 -3 -10 -3 -14 0 -3 4 0 7 7 7 7 0 10 -3 7 -7z m416 -23 c-3 -12 -8 -19 -11 -16 -5 6 5 36 12 36 2 0 2 -9 -1 -20z m-504 -126 c14 -3 41 -12 59 -20 46 -20 66 -18 77 9 12 28 85 39 85 13 0 -9 -7 -16 -15 -16 -8 0 -15 -6 -15 -14 0 -7 -3 -27 -6 -44 -5 -25 -2 -33 20 -47 21 -14 29 -15 41 -5 19 16 19 54 0 70 -19 16 -19 30 -1 30 23 0 30 -20 33 -90 1 -43 -1 -60 -7 -50 -8 13 -11 12 -23 -4 -14 -19 -16 -19 -40 -3 -30 19 -43 11 -21 -14 15 -17 15 -18 -7 -24 -38 -9 -160 2 -172 15 -10 10 -7 10 10 1 28 -14 40 -14 26 0 -6 6 -26 13 -43 15 -27 3 -30 1 -21 -10 9 -10 8 -15 -4 -20 -8 -3 -15 -1 -15 4 0 6 -9 10 -19 10 -11 0 -23 9 -26 20 -3 11 -15 20 -26 20 -10 0 -19 7 -19 15 0 8 -3 15 -7 15 -14 -1 -43 -27 -43 -39 0 -15 -11 -14 -38 5 -21 14 -23 14 -33 -10 -14 -29 2 -59 27 -49 10 4 12 0 8 -11 -12 -32 -49 -6 -59 41 -5 27 -2 34 19 48 14 10 42 17 61 17 31 0 35 3 30 19 -12 36 6 76 52 123 l47 46 19 -30 c10 -17 31 -33 46 -36z m426 15 c0 -39 -1 -40 -28 -35 -33 7 -47 -16 -29 -45 7 -10 12 -27 12 -38 0 -28 17 -37 100 -50 84 -14 158 -43 167 -67 9 -23 -18 -134 -32 -134 -17 0 -29 -51 -15 -60 16 -10 -29 -210 -47 -210 -8 0 -16 7 -18 15 -3 8 -8 23 -12 33 -3 9 -12 51 -18 92 -16 103 -45 165 -90 191 -27 16 -33 24 -25 34 8 10 8 15 -1 20 -6 4 -15 1 -20 -6 -4 -7 -11 -10 -15 -6 -4 3 -1 13 6 22 10 12 7 24 -15 67 -15 29 -31 68 -35 86 -7 30 -5 34 34 61 22 16 50 38 60 50 11 11 20 21 20 21 1 0 1 -18 1 -41z m1440 -7 c-8 -8 -25 10 -25 26 0 13 2 13 14 -4 8 -10 13 -21 11 -22z m-12 -49 c-5 -15 -3 -16 8 -5 7 6 15 12 19 12 3 0 7 -105 9 -233 3 -190 1 -235 -11 -244 -8 -7 -58 -13 -123 -14 l-110 -2 -40 87 c-31 66 -44 86 -60 86 -27 0 -41 11 -49 38 -8 23 -21 29 -31 12 -13 -21 -66 -10 -96 20 -24 23 -30 37 -27 62 3 32 5 34 103 65 55 18 168 54 250 81 180 59 166 56 158 35z m-1630 -43 c16 -19 16 -20 -3 -20 -13 0 -20 7 -20 20 0 11 1 20 3 20 1 0 10 -9 20 -20z m667 -28 c-68 -3 -111 -12 -106 -21 3 -4 28 -6 56 -3 53 5 59 -1 34 -36 -23 -33 -94 -28 -94 7 0 9 -6 27 -13 42 -13 24 -12 26 20 36 18 5 36 6 39 2 3 -5 19 -3 37 5 29 12 34 11 52 -8 l20 -21 -45 -3z m1050 -84 c0 -68 3 -162 7 -210 5 -77 4 -88 -11 -88 -13 0 -16 11 -16 51 0 29 -2 119 -5 202 -2 82 -2 154 1 158 17 28 24 -4 24 -113z m-568 92 c-56 -34 -78 -119 -48 -179 24 -45 84 -76 114 -58 6 5 12 4 12 0 0 -20 -26 -33 -66 -33 -101 0 -151 137 -82 225 22 28 75 65 93 65 6 0 -5 -9 -23 -20z m-607 -70 c3 -5 4 -10 1 -10 -3 0 -8 5 -11 10 -3 6 -4 10 -1 10 3 0 8 -4 11 -10z m-1698 -47 c-4 -3 -7 0 -7 7 0 7 3 10 7 7 3 -4 3 -10 0 -14z m160 -20 c-4 -3 -7 0 -7 7 0 7 3 10 7 7 3 -4 3 -10 0 -14z m2017 -21 c9 -58 45 -104 99 -126 40 -17 53 -18 78 -9 26 10 33 9 55 -12 25 -23 60 -112 46 -118 -4 -1 -93 -4 -198 -6 -185 -3 -192 -3 -213 18 -18 18 -25 20 -44 10 -12 -7 -25 -17 -29 -23 -4 -6 -55 -13 -120 -16 -117 -5 -154 -17 -192 -59 -26 -28 -120 -31 -112 -3 2 9 12 52 22 95 12 52 21 74 28 67 15 -15 26 -12 20 4 -4 11 0 13 15 9 12 -3 21 -1 21 6 0 6 -7 11 -15 11 -43 0 -1 19 118 53 72 22 193 61 267 87 74 26 138 48 141 49 4 1 9 -16 13 -37z m-1019 16 c6 -1 10 -20 10 -42 l0 -41 -184 -1 c-145 0 -180 2 -167 11 19 14 21 50 4 62 -22 14 50 20 192 16 74 -2 140 -4 145 -5z m-1044 -10 c0 -10 2 -10 6 0 8 21 25 13 21 -10 -2 -19 -9 -23 -34 -21 -27 2 -33 -1 -38 -22 -4 -14 -13 -25 -21 -25 -18 0 -20 26 -2 34 10 5 10 7 0 12 -7 3 -13 12 -13 19 0 16 16 23 53 24 15 1 27 -5 28 -11z m244 -3 c50 -3 157 -8 238 -10 246 -6 178 -14 -122 -14 -223 0 -281 2 -281 13 0 19 7 22 42 19 18 -1 74 -5 123 -8z m-358 -12 c-4 -3 -7 0 -7 7 0 7 3 10 7 7 3 -4 3 -10 0 -14z m1276 -30 c-7 -2 -21 -2 -30 0 -10 3 -4 5 12 5 17 0 24 -2 18 -5z m62 -15 c44 -20 69 -85 80 -208 3 -41 3 -43 -11 -26 -8 11 -14 34 -14 50 0 72 -35 162 -69 181 -32 17 -22 20 14 3z m-560 -21 c13 -4 9 -5 -9 -4 -16 1 -32 9 -34 17 -4 12 -2 13 9 4 8 -7 23 -14 34 -17z m531 -2 c12 -3 27 -18 33 -33 27 -70 39 -236 18 -249 -6 -3 -30 -5 -54 -4 -40 1 -114 -26 -126 -46 -11 -18 13 -265 29 -294 15 -30 96 -89 122 -89 8 0 25 -9 39 -20 20 -15 41 -20 90 -20 71 0 118 18 128 50 4 12 15 20 28 20 31 0 96 40 121 73 18 25 21 44 23 152 0 68 4 129 8 135 10 17 -2 40 -22 40 -15 0 -16 2 -3 10 8 5 34 10 56 10 38 0 42 -3 47 -27 3 -16 4 -53 3 -83 -5 -97 25 -138 115 -158 l44 -9 -180 -87 c-99 -48 -216 -105 -260 -126 l-80 -38 -191 -6 -191 -7 -6 108 c-13 218 -20 462 -14 478 6 14 9 14 28 -4 36 -33 99 -37 147 -9 32 18 40 28 36 43 -3 14 4 29 20 45 15 13 26 29 26 36 0 22 -28 66 -35 55 -3 -6 -11 -11 -16 -11 -6 0 -8 4 -5 8 3 5 -4 18 -14 30 -25 26 -26 45 -2 38 9 -2 27 -7 38 -11z m1108 -11 c9 -24 2 -26 -12 -4 -7 11 -8 20 -3 20 5 0 12 -7 15 -16z m-1310 -53 c7 -53 2 -74 -25 -109 l-18 -23 -7 36 c-3 19 -3 60 1 90 5 44 10 55 24 55 14 0 20 -11 25 -49z m468 14 c0 -5 -5 -11 -10 -13 -5 -1 -9 4 -9 13 0 9 4 14 9 13 5 -2 10 -8 10 -13z m-1246 -8 c14 -14 -8 -20 -107 -29 -88 -8 -102 -7 -113 7 -8 12 -30 16 -82 17 -73 2 -99 -6 -91 -26 3 -8 -25 -10 -102 -8 -151 5 -159 22 -19 42 72 10 504 7 514 -3z m2152 -62 c24 -50 28 -65 17 -65 -9 0 -15 9 -15 23 0 12 -11 41 -25 65 -13 23 -21 42 -17 42 4 0 22 -29 40 -65z m-2430 -43 c4 -110 -15 -102 -22 11 -4 56 -2 77 7 77 8 0 13 -28 15 -88z m469 80 c12 -8 33 -60 47 -114 6 -25 4 -28 -18 -28 -14 0 -30 8 -35 18 -10 16 -12 16 -26 -2 -13 -17 -15 -17 -21 -3 -3 10 -4 23 -1 31 3 8 -3 26 -14 40 l-20 26 20 0 c12 0 21 6 21 14 0 8 6 17 13 19 18 8 21 8 34 -1z m2007 -48 c3 -8 2 -12 -4 -9 -6 3 -10 10 -10 16 0 14 7 11 14 -7z m353 -96 c-3 -7 -5 -2 -5 12 0 14 2 19 5 13 2 -7 2 -19 0 -25z m-1818 -85 c1 -60 6 -184 11 -278 12 -215 12 -205 -2 -205 -9 0 -13 20 -13 67 0 38 -4 165 -9 285 -7 187 -5 238 8 238 2 0 4 -48 5 -107z m-782 78 c0 -11 -5 -18 -9 -15 -4 3 -5 11 -1 19 7 21 12 19 10 -4z m2390 13 c-3 -3 -12 -4 -19 -1 -8 3 -5 6 6 6 11 1 17 -2 13 -5z m-887 -14 c-8 -5 -24 -9 -35 -9 -16 1 -16 2 5 9 35 11 48 11 30 0z m227 3 c-4 -3 -10 -3 -14 0 -3 4 0 7 7 7 7 0 10 -3 7 -7z m40 1 c-3 -3 -12 -4 -19 -1 -8 3 -5 6 6 6 11 1 17 -2 13 -5z m50 -1 c-4 -3 -10 -3 -14 0 -3 4 0 7 7 7 7 0 10 -3 7 -7z m30 0 c-4 -3 -10 -3 -14 0 -3 4 0 7 7 7 7 0 10 -3 7 -7z m161 0 c-26 -2 -71 -2 -100 0 -29 2 -8 3 47 3 55 0 79 -1 53 -3z m149 0 c-20 -2 -52 -2 -70 0 -17 2 0 4 38 4 39 0 53 -2 32 -4z m-2010 -20 c-4 -3 -10 -3 -14 0 -3 4 0 7 7 7 7 0 10 -3 7 -7z m63 -3 c0 -5 -4 -10 -10 -10 -5 0 -10 5 -10 10 0 6 5 10 10 10 6 0 10 -4 10 -10z m57 3 c-4 -3 -10 -3 -14 0 -3 4 0 7 7 7 7 0 10 -3 7 -7z m1158 -13 c-10 -11 -20 -18 -23 -15 -7 6 18 35 31 35 5 0 2 -9 -8 -20z m835 10 c0 -5 -4 -10 -10 -10 -5 0 -10 5 -10 10 0 6 5 10 10 10 6 0 10 -4 10 -10z m274 -12 c13 -14 18 -41 21 -129 3 -61 2 -116 -1 -121 -9 -14 -55 40 -89 102 -24 43 -36 56 -57 58 -21 2 -35 15 -53 46 -14 24 -25 47 -25 52 0 5 42 9 93 9 75 0 97 -3 111 -17z m-314 -3 c12 -11 28 -15 43 -11 20 5 26 -1 45 -39 23 -48 22 -51 -10 -34 -15 8 -30 7 -62 -5 -22 -8 -63 -18 -91 -21 -27 -4 -63 -8 -80 -10 -16 -2 -32 -4 -35 -5 -3 -2 -8 -2 -12 -1 -4 0 -9 -7 -12 -17 -5 -14 -21 -17 -95 -20 -53 -1 -92 2 -96 8 -3 5 -1 10 5 10 8 0 10 21 5 74 -9 89 -30 80 208 84 148 3 171 2 187 -13z m-420 -16 c0 -9 3 -36 6 -60 l6 -44 -65 -3 c-39 -2 -68 1 -72 8 -3 6 -9 35 -12 66 l-6 55 72 -3 c58 -2 71 -5 71 -19z m813 -76 c3 -49 4 -90 2 -92 -2 -2 -10 3 -17 10 -18 19 -21 169 -3 169 8 0 14 -27 18 -87z m-2393 35 c0 -9 -4 -20 -10 -23 -6 -4 -10 9 -10 32 0 28 3 34 10 23 5 -8 10 -23 10 -32z m-200 6 c0 -2 -9 -4 -20 -4 -11 0 -20 4 -20 9 0 5 9 7 20 4 11 -3 20 -7 20 -9z m1105 6 c3 -5 1 -10 -4 -10 -6 0 -11 5 -11 10 0 6 2 10 4 10 3 0 8 -4 11 -10z m205 6 c0 -3 -5 -8 -12 -12 -7 -4 -8 -3 -4 4 7 12 16 16 16 8z m124 -8 c-6 -10 -64 -11 -64 0 0 4 16 7 35 8 19 0 32 -3 29 -8z m-1997 -17 c0 -11 -5 -18 -9 -15 -4 3 -5 11 -1 19 7 21 12 19 10 -4z m26 4 c-3 -9 -8 -14 -10 -11 -3 3 -2 9 2 15 9 16 15 13 8 -4z m207 3 c0 -9 -13 -10 -115 -9 -90 0 -95 3 -20 10 82 8 135 7 135 -1z m228 5 c-21 -2 -55 -2 -75 0 -21 2 -4 4 37 4 41 0 58 -2 38 -4z m-558 -13 c0 -5 -7 -10 -15 -10 -8 0 -15 5 -15 10 0 6 7 10 15 10 8 0 15 -4 15 -10z m2990 -10 c6 -11 8 -20 6 -20 -3 0 -10 9 -16 20 -6 11 -8 20 -6 20 3 0 10 -9 16 -20z m-1060 3 c0 -9 -138 -8 -147 1 -4 3 28 6 70 6 43 0 77 -3 77 -7z m-276 -18 c-4 -8 -8 -15 -10 -15 -2 0 -4 7 -4 15 0 8 4 15 10 15 5 0 7 -7 4 -15z m436 5 c0 -5 -2 -10 -4 -10 -3 0 -8 5 -11 10 -3 6 -1 10 4 10 6 0 11 -4 11 -10z m-1422 -13 c6 -5 12 -15 12 -24 0 -9 -3 -14 -6 -10 -3 3 -16 2 -28 -2 -33 -12 -70 15 -57 42 3 6 67 1 79 -6z m1185 -17 c3 -11 10 -20 15 -20 6 0 14 9 17 20 9 29 23 25 27 -7 2 -18 10 -29 22 -31 15 -3 18 0 13 17 -4 18 -2 19 13 11 26 -14 34 -30 16 -30 -24 0 -30 -20 -12 -38 15 -16 17 -15 23 6 4 18 8 20 14 10 13 -20 11 -49 -3 -46 -14 3 -18 -3 -18 -27 0 -8 7 -15 15 -15 17 0 19 -9 5 -30 -5 -8 -10 -10 -10 -4 0 7 -11 15 -25 18 -13 3 -40 22 -59 42 -19 20 -39 33 -45 30 -5 -4 -8 -36 -6 -72 3 -46 0 -71 -9 -80 -16 -15 -26 -8 -26 18 0 17 -19 21 -31 5 -3 -4 -14 2 -24 13 -16 18 -17 20 -2 14 9 -3 24 -3 33 0 13 5 14 9 4 21 -8 10 -18 11 -35 5 -21 -8 -24 -6 -30 20 -10 45 4 96 35 125 26 25 28 26 23 6 -4 -15 -1 -21 11 -21 10 0 16 9 16 23 0 39 24 51 33 17z m156 -14 c18 -21 42 -106 31 -106 -6 0 -10 9 -10 21 0 26 -16 57 -49 93 -22 24 -23 27 -5 18 11 -6 26 -18 33 -26z m30 4 c11 -24 11 -24 -3 -6 -9 11 -16 24 -16 30 0 12 5 7 19 -24z m28 -17 c-4 -3 -7 0 -7 7 0 7 3 10 7 7 3 -4 3 -10 0 -14z m-420 -25 c-3 -7 -5 -2 -5 12 0 14 2 19 5 13 2 -7 2 -19 0 -25z m1387 7 c11 -8 16 -15 12 -15 -4 0 2 -12 13 -26 26 -34 27 -61 1 -69 -28 -9 -37 -1 -66 57 -14 27 -21 47 -16 44 6 -3 12 1 16 9 7 19 16 18 40 0z m-969 -5 c3 -5 1 -10 -4 -10 -6 0 -11 5 -11 10 0 6 2 10 4 10 3 0 8 -4 11 -10z m366 -50 c34 0 20 -17 -16 -18 -23 -1 -44 7 -65 24 -45 38 -36 49 16 20 26 -14 55 -26 65 -26z m-778 -35 c4 -39 3 -51 -2 -35 -9 25 -15 107 -7 99 2 -2 6 -31 9 -64z m1612 15 c3 -5 1 -18 -4 -27 -10 -17 -10 -16 -11 2 -1 15 -3 16 -7 5 -8 -20 -29 -40 -42 -40 -17 0 -13 13 14 43 27 29 40 33 50 17z m-3153 -53 c-3 -23 2 -38 17 -51 20 -19 58 -15 46 4 -4 6 -11 8 -16 5 -12 -8 -11 26 1 45 5 8 10 10 10 4 0 -7 9 -14 20 -17 29 -8 25 -30 -15 -68 -19 -19 -35 -37 -35 -40 0 -3 11 -18 25 -33 28 -30 31 -45 13 -67 -11 -14 -16 -13 -35 8 -12 13 -18 23 -13 23 14 0 0 62 -20 85 -28 32 -41 63 -30 70 5 3 10 22 10 40 0 24 4 33 13 29 8 -3 12 -17 9 -37z m1608 20 c0 -7 7 -25 16 -42 12 -23 12 -27 1 -15 -17 18 -40 83 -27 75 6 -4 10 -12 10 -18z m228 -37 c7 0 12 -5 12 -11 0 -6 8 -8 18 -5 14 5 14 4 -2 -9 -14 -11 -22 -12 -27 -4 -9 15 -32 1 -25 -16 2 -7 -4 -15 -14 -18 -22 -6 -27 9 -21 66 l3 38 22 -20 c12 -12 28 -21 34 -21z m106 3 c-4 -16 -13 -35 -21 -43 -14 -13 -14 -13 -4 7 6 12 11 31 11 42 0 12 5 21 10 21 6 0 8 -11 4 -27z m1049 -3 c-3 -11 -1 -20 5 -20 13 0 23 -26 16 -45 -8 -20 -63 -20 -71 1 -3 9 -1 19 4 23 6 3 9 14 7 24 -1 11 6 22 19 27 12 5 23 9 24 9 0 1 -1 -8 -4 -19z m-3026 -7 c-4 -3 -7 0 -7 7 0 7 3 10 7 7 3 -4 3 -10 0 -14z m1727 -78 c-4 -8 -8 -15 -10 -15 -2 0 -4 7 -4 15 0 8 4 15 10 15 5 0 7 -7 4 -15z m161 5 c3 -5 -3 -10 -15 -10 -12 0 -18 5 -15 10 3 6 10 10 15 10 5 0 12 -4 15 -10z m-1911 -57 c16 -5 36 -20 45 -33 15 -23 15 -23 -11 -18 -15 3 -29 1 -31 -5 -4 -14 -64 19 -77 42 -5 11 -10 32 -10 47 l0 28 28 -26 c15 -14 40 -30 56 -35z m23 30 c-4 -3 -10 -3 -14 0 -3 4 0 7 7 7 7 0 10 -3 7 -7z m1830 -15 c-3 -8 -6 -5 -6 6 -1 11 2 17 5 13 3 -3 4 -12 1 -19z m1229 14 c36 -24 38 -81 3 -67 -24 9 -52 62 -37 68 18 8 22 8 34 -1z m86 -142 c14 -33 25 -60 23 -60 -6 0 -59 86 -57 93 1 4 -2 7 -7 7 -5 0 -11 -7 -13 -17 -3 -15 -4 -15 -17 0 -12 15 -10 18 10 26 13 5 26 10 29 10 3 1 17 -26 32 -59z m-3085 33 c-4 -3 -10 -3 -14 0 -3 4 0 7 7 7 7 0 10 -3 7 -7z m1681 -45 c3 -17 -9 -18 -146 -18 -82 0 -164 3 -181 6 -67 14 -25 24 112 26 219 5 211 5 215 -14z m-958 -3 c0 -8 -2 -15 -4 -15 -2 0 -6 7 -10 15 -3 8 -1 15 4 15 6 0 10 -7 10 -15z m530 2 c0 -24 -33 -28 -279 -34 l-233 -6 11 21 c11 20 20 22 174 24 89 2 199 4 245 6 66 2 82 0 82 -11z m45 4 c3 -5 1 -12 -5 -16 -5 -3 -10 1 -10 9 0 18 6 21 15 7z m42 -73 c-3 -7 -5 -2 -5 12 0 14 2 19 5 13 2 -7 2 -19 0 -25z m440 10 c-3 -8 -6 -5 -6 6 -1 11 2 17 5 13 3 -3 4 -12 1 -19z m-567 -2 c0 -11 -37 -14 -192 -15 -106 -1 -212 -4 -235 -7 -29 -4 -43 -3 -43 5 0 7 41 11 128 12 282 2 322 4 322 11 0 5 5 8 10 8 6 0 10 -6 10 -14z m501 5 c-8 -5 -84 -10 -169 -10 -85 -1 -159 -4 -164 -7 -4 -3 -8 1 -8 9 0 12 31 15 178 16 112 1 172 -2 163 -8z m-396 -11 c4 -6 -7 -10 -24 -10 -17 0 -31 5 -31 10 0 6 11 10 24 10 14 0 28 -4 31 -10z"/>
 <path d="M2923 2234 c0 -23 1 -24 14 -11 9 8 12 20 9 26 -12 19 -23 12 -23 -15z"/>
 <path d="M1942 1998 c-13 -13 -16 -14 -70 -16 -49 -3 -35 -27 16 -28 24 0 50 -8 60 -17 26 -24 35 -21 55 13 l18 29 -30 16 c-36 18 -34 18 -49 3z m40 -43 c-12 -22 -27 -2 -18 22 5 12 10 13 17 6 7 -7 8 -17 1 -28z"/>
 <path d="M3310 1980 c0 -5 4 -10 9 -10 6 0 13 5 16 10 3 6 -1 10 -9 10 -9 0 -16 -4 -16 -10z"/>
 <path d="M3230 1970 c0 -5 5 -10 10 -10 6 0 10 5 10 10 0 6 -4 10 -10 10 -5 0 -10 -4 -10 -10z"/>
 <path d="M3173 1963 c4 -3 10 -3 14 0 3 4 0 7 -7 7 -7 0 -10 -3 -7 -7z"/>
 <path d="M763 1603 c4 -3 10 -3 14 0 3 4 0 7 -7 7 -7 0 -10 -3 -7 -7z"/>
 <path d="M2526 1409 c-9 -45 -7 -70 3 -44 15 39 21 75 12 75 -4 0 -11 -14 -15 -31z"/>
 <path d="M2500 1331 c0 -6 5 -13 10 -16 6 -3 10 1 10 9 0 9 -4 16 -10 16 -5 0 -10 -4 -10 -9z"/>
 <path d="M2010 1340 c0 -5 7 -10 15 -10 8 0 15 5 15 10 0 6 -7 10 -15 10 -8 0 -15 -4 -15 -10z"/>
 <path d="M1920 1305 c-27 -33 15 -81 58 -64 24 9 30 47 10 67 -16 16 -53 15 -68 -3z m50 -35 c9 -5 8 -9 -3 -13 -22 -8 -41 8 -33 29 6 15 9 16 15 5 5 -7 14 -17 21 -21z"/>
 <path d="M1870 1226 c0 -20 48 -56 76 -56 30 0 59 29 45 43 -8 8 -15 7 -23 -1 -18 -18 -43 -15 -63 8 -21 23 -35 26 -35 6z"/>
 <path d="M3372 1178 c3 -43 3 -43 43 -43 40 0 40 0 43 43 2 33 0 42 -12 42 -11 0 -16 -9 -16 -30 0 -22 -4 -28 -15 -24 -8 4 -15 17 -15 30 0 15 -6 24 -16 24 -12 0 -14 -9 -12 -42z"/>
 <path d="M3068 950 c3 -31 8 -40 23 -40 16 0 18 5 13 26 -6 23 -4 25 15 19 17 -5 21 -2 21 14 0 18 -6 21 -38 21 l-38 0 4 -40z"/>
 <path d="M1400 830 c0 -7 3 -10 7 -7 3 4 3 10 0 14 -4 3 -7 0 -7 -7z"/>
 <path d="M2926 713 c-9 -16 -15 -20 -12 -10 4 12 2 17 -6 15 -18 -6 -16 -43 2 -43 8 0 21 -6 28 -12 18 -17 27 -16 46 3 19 18 20 28 6 55 -15 27 -42 24 -64 -8z m41 0 c-4 -3 -10 -3 -14 0 -3 4 0 7 7 7 7 0 10 -3 7 -7z m0 -40 c-4 -3 -10 -3 -14 0 -3 4 0 7 7 7 7 0 10 -3 7 -7z"/>
 <path d="M2326 591 c-3 -5 -6 -20 -6 -32 0 -13 -1 -35 -2 -49 -2 -17 2 -25 12 -25 10 0 15 11 17 35 0 19 2 40 3 45 7 30 -11 48 -24 26z"/>
 <path d="M3617 2420 c-8 -11 -17 -17 -20 -13 -11 11 -8 -97 3 -118 13 -23 36 -25 44 -3 5 12 10 14 20 5 7 -6 15 -8 18 -6 3 3 26 -36 51 -88 43 -88 94 -163 104 -153 3 2 -8 24 -24 48 -33 48 -63 120 -62 146 0 12 4 10 12 -8 21 -43 41 -70 54 -70 17 0 16 18 -1 51 -17 33 -28 76 -30 114 -1 26 -4 30 -26 27 -14 -2 -30 -8 -36 -13 -12 -10 -44 13 -44 32 0 5 -9 9 -20 9 -11 0 -20 4 -20 9 0 18 29 32 54 25 28 -7 37 10 10 20 -32 12 -73 6 -87 -14z m0 -112 c-3 -8 -6 -5 -6 6 -1 11 2 17 5 13 3 -3 4 -12 1 -19z m100 -5 c-4 -3 -7 0 -7 7 0 7 3 10 7 7 3 -4 3 -10 0 -14z m40 -25 c-3 -8 -6 -5 -6 6 -1 11 2 17 5 13 3 -3 4 -12 1 -19z m53 -87 c-1 -17 -30 36 -30 53 1 16 5 12 15 -13 8 -18 15 -36 15 -40z"/>
 <path d="M1548 2403 c-21 -2 -38 -9 -38 -14 0 -7 12 -8 32 -3 28 6 31 5 20 -8 -7 -9 -26 -18 -42 -22 -17 -3 -30 -10 -30 -16 0 -6 11 -8 28 -5 25 6 25 5 7 -6 -11 -7 -51 -29 -90 -48 -51 -26 -70 -41 -70 -56 0 -11 8 -21 17 -23 28 -5 108 35 116 59 6 14 11 18 16 11 9 -15 27 -7 106 42 36 23 82 50 103 60 20 11 37 23 37 28 0 13 -124 9 -139 -4 -11 -10 -13 -10 -7 0 5 8 1 11 -11 10 -10 -1 -35 -3 -55 -5z m106 -15 c-5 -8 -1 -9 14 -5 51 16 67 17 37 3 -16 -8 -57 -30 -89 -50 -62 -38 -76 -42 -76 -27 0 9 107 91 117 91 2 0 1 -5 -3 -12z m-164 -113 c0 -10 -80 -57 -90 -53 -7 2 10 16 37 31 52 29 53 29 53 22z"/>
 <path d="M2591 2344 c-36 -29 -66 -52 -68 -50 -12 12 -212 -89 -220 -111 -3 -8 2 -20 12 -27 21 -15 80 11 177 78 45 30 72 42 93 41 20 -2 48 9 83 32 45 29 52 37 46 56 -16 52 -44 48 -123 -19z m9 -34 c0 -5 -7 -10 -16 -10 -8 0 -12 5 -9 10 3 6 10 10 16 10 5 0 9 -4 9 -10z m-93 -47 c-4 -3 -10 -3 -14 0 -3 4 0 7 7 7 7 0 10 -3 7 -7z m-82 -43 c3 -5 -17 -20 -45 -34 -27 -13 -52 -21 -55 -16 -3 5 53 42 92 59 1 1 5 -3 8 -9z"/>
 <path d="M1404 2338 c-20 -17 -45 -33 -56 -33 -29 -2 -52 -30 -43 -52 8 -17 9 -16 12 3 2 12 14 24 26 27 20 6 20 5 5 -7 -10 -7 -18 -16 -18 -20 0 -12 43 5 76 30 17 13 39 24 49 24 15 0 16 3 7 12 -10 10 -17 10 -32 0 -12 -7 -20 -8 -20 -2 0 5 3 10 8 10 4 0 18 9 32 20 20 16 21 20 8 20 -10 0 -34 -14 -54 -32z"/>
 <path d="M3543 2207 c-73 -24 -86 -43 -15 -21 26 8 57 17 70 20 12 3 22 10 22 15 0 12 -4 11 -77 -14z"/>
 <path d="M3427 2174 c-4 -4 -26 -9 -49 -11 -42 -4 -55 -9 -47 -17 5 -5 100 12 107 19 3 3 3 7 0 10 -2 3 -8 2 -11 -1z"/>
 <path d="M3453 2173 c4 -3 10 -3 14 0 3 4 0 7 -7 7 -7 0 -10 -3 -7 -7z"/>
 <path d="M3298 2143 c7 -3 16 -2 19 1 4 3 -2 6 -13 5 -11 0 -14 -3 -6 -6z"/>
 <path d="M933 2062 c-8 -5 -10 -22 -6 -50 6 -41 7 -43 37 -40 25 2 32 9 40 35 6 23 5 37 -4 48 -13 16 -47 20 -67 7z m44 -39 c-4 -3 -10 -3 -14 0 -3 4 0 7 7 7 7 0 10 -3 7 -7z"/>
 <path d="M3537 1976 c-15 -39 57 -198 118 -258 40 -40 90 -116 83 -124 -2 -2 -24 10 -48 26 -25 17 -49 30 -55 30 -5 0 -32 30 -60 65 -48 62 -75 81 -75 52 0 -7 7 -22 16 -33 14 -17 15 -17 10 -1 -4 11 -2 16 5 12 5 -4 7 -15 4 -26 -20 -62 43 -172 124 -217 22 -13 41 -20 41 -16 0 4 9 -1 20 -11 11 -10 20 -14 20 -8 0 14 -34 43 -51 43 -17 0 -96 80 -123 123 -9 16 -15 36 -13 45 4 15 5 15 6 0 0 -10 6 -18 11 -18 6 0 10 -8 10 -18 0 -10 7 -27 16 -38 15 -19 16 -19 9 0 -6 19 -5 19 14 2 11 -10 24 -15 29 -12 6 3 12 -1 16 -9 5 -15 70 -48 96 -49 8 0 18 -4 21 -9 3 -4 17 -9 30 -11 14 -1 29 -5 34 -8 26 -14 65 -18 65 -6 0 10 2 10 8 1 8 -13 52 -14 52 0 0 4 6 5 13 0 19 -12 37 -12 37 -1 0 6 6 5 15 -2 11 -9 15 -9 15 -1 0 7 3 10 8 8 18 -11 50 13 50 38 0 15 -4 22 -7 16 -4 -6 -18 -14 -32 -16 -28 -6 -172 32 -209 55 -14 8 -43 24 -64 35 -103 52 -191 168 -232 306 -16 53 -19 57 -27 35z"/>
 <path d="M297 1839 c-29 -40 20 -94 69 -75 18 7 14 42 -4 39 -7 -2 -17 -4 -24 -5 -6 -2 -14 6 -16 16 -3 16 0 18 28 13 26 -6 31 -4 28 11 -5 27 -62 28 -81 1z"/>
 <path d="M391 1834 c0 -11 3 -14 6 -6 3 7 2 16 -1 19 -3 4 -6 -2 -5 -13z"/>
 <path d="M3910 1771 c0 -13 37 -24 52 -15 8 5 6 10 -8 15 -27 11 -44 11 -44 0z"/>
 <path d="M170 1641 c0 -12 5 -21 10 -21 6 0 10 6 10 14 0 8 -4 18 -10 21 -5 3 -10 -3 -10 -14z"/>
 <path d="M4093 1623 c4 -3 10 -3 14 0 3 4 0 7 -7 7 -7 0 -10 -3 -7 -7z"/>
 <path d="M4050 1610 c0 -5 5 -10 10 -10 6 0 10 5 10 10 0 6 -4 10 -10 10 -5 0 -10 -4 -10 -10z"/>
 <path d="M160 1580 c0 -11 4 -20 9 -20 11 0 22 26 14 34 -12 12 -23 5 -23 -14z"/>
 <path d="M3630 1570 c0 -5 5 -10 10 -10 6 0 10 5 10 10 0 6 -4 10 -10 10 -5 0 -10 -4 -10 -10z"/>
 <path d="M144 1525 c-4 -14 -3 -29 0 -33 9 -8 26 18 26 41 0 26 -19 20 -26 -8z"/>
 <path d="M125 1459 c-4 -11 -4 -23 0 -27 7 -7 25 17 25 36 0 20 -18 14 -25 -9z"/>
 <path d="M3750 1471 c0 -4 12 -13 26 -20 20 -9 25 -9 22 0 -5 14 -48 32 -48 20z"/>
 <path d="M3895 1460 c4 -6 -11 -7 -39 -4 -31 5 -46 3 -46 -5 0 -6 8 -11 18 -11 10 0 30 -13 44 -29 14 -15 40 -35 57 -42 19 -9 29 -19 26 -28 -4 -10 0 -11 12 -5 10 4 36 8 58 7 22 -1 44 4 48 10 6 9 10 9 14 0 10 -25 20 -12 21 27 2 31 -1 38 -13 34 -8 -4 -15 -10 -15 -16 0 -5 6 -6 13 -2 7 4 9 3 4 -2 -5 -5 -32 -14 -60 -21 -42 -9 -55 -9 -71 3 -11 8 -16 14 -11 15 6 1 19 2 30 3 11 1 29 3 40 4 20 2 91 59 83 67 -2 2 -24 -1 -48 -7 -55 -12 -134 -11 -138 2 -2 6 -10 10 -18 10 -9 0 -12 -4 -9 -10z"/>
 <path d="M107 1404 c-10 -10 -9 -44 2 -44 13 0 23 32 13 42 -5 5 -11 5 -15 2z"/>
 <path d="M90 1315 c0 -14 5 -25 10 -25 6 0 10 11 10 25 0 14 -4 25 -10 25 -5 0 -10 -11 -10 -25z"/>
 <path d="M77 1248 c-7 -25 0 -41 14 -33 12 8 12 55 0 55 -5 0 -11 -10 -14 -22z"/>
 <path d="M70 1164 c0 -14 4 -23 10 -19 6 3 10 15 10 26 0 10 -4 19 -10 19 -5 0 -10 -12 -10 -26z"/>
 <path d="M66 1115 c-7 -19 3 -47 15 -39 12 7 12 54 0 54 -5 0 -11 -7 -15 -15z"/>
 <path d="M65 1040 c-7 -21 0 -40 16 -40 12 0 12 47 0 55 -5 3 -12 -4 -16 -15z"/>
 <path d="M70 955 c0 -14 5 -25 10 -25 6 0 10 11 10 25 0 14 -4 25 -10 25 -5 0 -10 -11 -10 -25z"/>
 <path d="M70 895 c0 -14 5 -25 10 -25 6 0 10 11 10 25 0 14 -4 25 -10 25 -5 0 -10 -11 -10 -25z"/>
 <path d="M76 841 c-8 -12 3 -41 15 -41 5 0 9 11 9 25 0 25 -14 34 -24 16z"/>
 <path d="M80 778 c0 -7 4 -19 9 -27 11 -17 25 3 17 24 -7 18 -26 20 -26 3z"/>
 <path d="M1280 754 c0 -8 5 -12 10 -9 6 3 10 10 10 16 0 5 -4 9 -10 9 -5 0 -10 -7 -10 -16z"/>
 <path d="M1520 690 c0 -27 5 -50 10 -50 6 0 13 0 18 -1 4 0 10 10 13 23 6 23 6 23 18 -5 16 -41 34 -28 37 25 2 34 -1 48 -12 52 -10 4 -18 -1 -21 -14 -7 -26 -19 -26 -26 0 -3 11 -12 20 -21 20 -13 0 -16 -11 -16 -50z"/>
 <path d="M97 724 c-8 -8 3 -34 14 -34 11 0 12 27 0 34 -4 3 -11 3 -14 0z"/>
 <path d="M110 646 c0 -14 5 -26 10 -26 6 0 10 9 10 19 0 11 -4 23 -10 26 -6 4 -10 -5 -10 -19z"/>
 <path d="M1302 648 c5 -15 28 -18 29 -3 0 6 -7 12 -17 13 -10 3 -15 -1 -12 -10z"/>
 <path d="M1360 640 c0 -5 5 -10 11 -10 5 0 7 5 4 10 -3 6 -8 10 -11 10 -2 0 -4 -4 -4 -10z"/>
 <path d="M976 618 c-3 -7 -7 -30 -11 -50 -6 -38 -6 -38 30 -38 19 0 38 0 43 0 18 0 5 46 -15 55 -13 5 -22 16 -20 24 3 18 -22 27 -27 9z"/>
 <path d="M1340 610 c0 -7 3 -10 7 -7 3 4 3 10 0 14 -4 3 -7 0 -7 -7z"/>
 <path d="M120 598 c0 -19 18 -43 25 -36 9 9 -4 48 -16 48 -5 0 -9 -6 -9 -12z"/>
 <path d="M1311 584 c0 -11 3 -14 6 -6 3 7 2 16 -1 19 -3 4 -6 -2 -5 -13z"/>
 <path d="M469 583 c0 -4 -1 -26 -2 -48 -2 -39 -1 -40 36 -43 32 -3 37 0 37 18 0 17 -4 21 -17 15 -13 -4 -12 0 5 15 13 12 21 27 19 33 -4 14 -77 23 -78 10z m48 -30 c-4 -3 -10 -3 -14 0 -3 4 0 7 7 7 7 0 10 -3 7 -7z"/>
 <path d="M146 542 c-8 -13 3 -42 15 -42 11 0 11 21 0 39 -5 8 -11 9 -15 3z"/>
 <path d="M160 473 c0 -5 4 -15 10 -23 11 -18 25 -7 17 15 -6 15 -27 21 -27 8z"/>
 <path d="M400 450 c0 -7 3 -10 7 -7 3 4 3 10 0 14 -4 3 -7 0 -7 -7z"/>
 <path d="M280 400 l0 -51 32 3 c25 2 35 9 42 31 13 37 -2 61 -43 65 l-31 3 0 -51z m50 -6 c0 -8 -4 -14 -10 -14 -5 0 -10 9 -10 21 0 11 5 17 10 14 6 -3 10 -13 10 -21z"/>
 <path d="M3450 410 c0 -22 -1 -43 -2 -47 -1 -5 6 -9 15 -11 10 -2 17 3 17 12 0 20 14 20 30 1 10 -12 16 -13 24 -5 8 8 7 13 -4 20 -11 7 -12 14 -3 33 19 41 -15 55 -35 15 l-11 -23 0 23 c-1 13 -7 22 -16 22 -11 0 -15 -11 -15 -40z"/>
 <path d="M2920 425 c-15 -19 -3 -37 20 -30 15 5 19 0 22 -26 4 -42 24 -49 33 -11 9 42 -9 82 -39 82 -13 0 -29 -7 -36 -15z"/>
 <path d="M180 417 c0 -7 4 -17 8 -22 5 -6 14 -29 21 -52 6 -24 16 -43 21 -43 16 0 12 27 -10 65 -11 19 -20 37 -20 40 0 3 0 10 0 15 0 6 -4 10 -10 10 -5 0 -10 -6 -10 -13z"/>
 <path d="M1459 408 c0 -2 -1 -21 -2 -43 -2 -34 1 -40 21 -43 19 -3 22 1 22 32 0 20 1 39 3 44 1 4 -8 8 -20 10 -13 2 -23 2 -24 0z"/>
 <path d="M248 290 c-40 -42 -48 -56 -48 -88 0 -34 6 -44 48 -79 26 -22 60 -48 75 -58 l28 -18 59 59 c39 38 60 67 60 82 0 16 -22 46 -62 88 -77 81 -94 82 -160 14z m152 -56 l49 -47 -47 -53 c-26 -30 -51 -54 -56 -54 -4 0 -30 18 -57 41 -59 49 -62 73 -18 124 43 48 69 46 129 -11z"/>
 <path d="M320 260 c0 -5 5 -10 10 -10 6 0 10 5 10 10 0 6 -4 10 -10 10 -5 0 -10 -4 -10 -10z"/>
 <path d="M275 240 c-4 -6 -3 -16 3 -22 6 -6 12 -6 17 2 4 6 3 16 -3 22 -6 6 -12 6 -17 -2z"/>
 <path d="M360 220 c0 -7 3 -10 7 -7 3 4 3 10 0 14 -4 3 -7 0 -7 -7z"/>
 <path d="M320 184 c0 -8 5 -12 10 -9 6 4 8 11 5 16 -9 14 -15 11 -15 -7z"/>
 <path d="M250 180 c0 -5 5 -10 10 -10 6 0 10 5 10 10 0 6 -4 10 -10 10 -5 0 -10 -4 -10 -10z"/>
 <path d="M380 150 c0 -7 3 -10 7 -7 3 4 3 10 0 14 -4 3 -7 0 -7 -7z"/>
 <path d="M290 140 c0 -5 5 -10 10 -10 6 0 10 5 10 10 0 6 -4 10 -10 10 -5 0 -10 -4 -10 -10z"/>
 <path d="M322 111 c4 -13 18 -16 19 -4 0 4 -5 9 -11 12 -7 2 -11 -2 -8 -8z"/>
 </g>
<g id="layer2" fill="#fbfbfb" stroke="none">
 <path d="M0 1245 l0 -1245 2055 0 2055 0 0 666 c0 595 -2 667 -16 681 -11 11 -18 13 -22 5 -4 -5 -25 -10 -47 -9 -22 1 -48 -3 -58 -7 -12 -6 -16 -5 -12 5 3 9 -7 19 -26 28 -17 7 -43 27 -57 42 -14 16 -34 29 -44 29 -10 0 -18 5 -18 11 0 8 15 10 46 5 28 -3 43 -2 39 4 -3 6 0 10 9 10 8 0 16 -4 18 -9 4 -13 73 -16 118 -7 65 14 70 17 70 41 0 22 -3 23 -24 15 -13 -5 -27 -6 -30 -3 -3 4 -6 1 -6 -7 0 -10 -3 -10 -15 0 -9 7 -15 8 -15 2 0 -11 -18 -11 -37 1 -7 5 -13 4 -13 0 0 -14 -44 -13 -52 0 -6 9 -8 9 -8 -1 0 -12 -39 -8 -65 6 -5 3 -20 7 -34 8 -13 2 -27 7 -30 11 -3 5 -13 9 -21 9 -26 1 -91 34 -96 49 -4 8 -10 12 -16 9 -5 -3 -18 2 -29 12 -19 17 -20 17 -14 -2 7 -19 6 -19 -9 0 -9 11 -16 28 -16 38 0 10 -4 18 -9 18 -5 0 -12 8 -14 18 -4 16 -5 16 -6 -1 0 -10 7 -30 16 -45 27 -44 106 -122 124 -122 16 0 49 -30 49 -45 0 -4 -9 0 -20 10 -11 10 -20 15 -20 11 0 -4 -19 3 -41 16 -81 45 -144 155 -124 217 3 11 1 22 -4 26 -7 4 -9 -1 -5 -12 5 -16 4 -16 -10 1 -9 11 -16 26 -16 33 0 29 27 10 75 -52 28 -35 55 -65 60 -65 6 0 30 -13 55 -30 24 -16 46 -28 48 -26 7 8 -43 84 -83 124 -65 64 -136 225 -116 261 7 11 13 2 24 -36 42 -140 129 -256 233 -308 21 -11 50 -27 64 -36 35 -22 157 -54 205 -54 38 0 40 1 43 34 1 20 -3 38 -10 43 -10 6 -10 8 0 8 9 0 12 32 12 127 0 109 -2 124 -14 108 -8 -12 -20 -16 -35 -12 -14 3 -21 1 -21 -10 0 -10 -9 -14 -30 -11 -18 2 -34 -3 -39 -11 -5 -7 -13 -11 -19 -7 -6 3 -14 2 -17 -4 -5 -8 -11 -8 -19 -1 -7 6 -15 8 -18 5 -14 -13 -81 30 -141 90 -36 36 -68 66 -71 66 -4 0 2 -17 13 -38 26 -51 117 -133 194 -176 55 -31 69 -34 120 -30 44 3 57 0 57 -10 0 -9 -10 -13 -30 -12 -21 2 -27 -1 -19 -10 12 -15 -12 -26 -32 -14 -7 5 -18 5 -24 1 -14 -11 -44 -11 -83 1 -18 5 -41 11 -50 13 -9 2 -17 4 -17 5 0 1 -11 4 -25 6 -14 3 -26 9 -28 14 -2 6 -12 10 -22 10 -26 0 -113 86 -139 138 -24 47 -19 55 11 16 11 -14 22 -23 24 -21 2 2 -3 30 -11 62 -24 91 -14 96 33 18 23 -40 48 -75 55 -80 6 -4 4 4 -5 17 -46 65 -101 201 -91 226 8 21 21 17 29 -8 4 -13 17 -37 30 -54 13 -17 24 -36 24 -43 0 -7 4 -10 9 -6 5 3 13 -3 16 -12 4 -10 26 -35 49 -55 l43 -38 -9 48 c-5 26 -12 60 -15 76 -5 27 -1 25 76 -38 45 -37 86 -64 91 -61 6 3 10 2 10 -3 0 -5 12 -8 28 -8 34 2 63 54 61 111 -1 22 1 50 5 62 8 24 -28 101 -39 84 -10 -18 -25 -12 -37 14 -8 18 -19 25 -40 25 -17 0 -28 5 -28 14 0 9 -8 12 -25 8 -23 -4 -25 -1 -26 34 -1 28 -3 32 -6 14 -7 -39 -23 -49 -23 -14 0 22 -3 25 -10 14 -13 -21 -22 -7 -27 45 -5 37 -3 45 11 45 9 0 16 -4 16 -9 0 -10 34 -23 70 -25 14 -1 32 -5 40 -8 46 -19 50 -18 50 13 0 17 6 32 15 35 16 7 45 -12 45 -29 0 -5 -9 -2 -20 8 -18 17 -19 16 -25 -8 -10 -38 2 -64 27 -63 16 1 27 -9 38 -32 9 -18 19 -30 23 -26 4 4 7 67 7 141 l0 133 -2050 0 -2050 0 0 -1245z m582 1176 c81 -53 195 -98 429 -166 247 -72 699 -137 699 -101 0 8 16 28 35 45 l36 31 -40 0 c-37 0 -71 19 -71 41 0 48 163 84 380 83 130 0 149 -2 188 -22 54 -29 59 -64 11 -81 -18 -6 -41 -11 -52 -11 -16 0 -13 -5 16 -27 35 -27 55 -59 43 -70 -3 -4 -23 -10 -43 -14 -51 -11 275 -1 371 11 80 10 116 25 116 50 0 8 13 26 30 40 29 24 30 27 18 58 -12 30 -11 35 6 48 25 18 51 18 70 -1 22 -22 26 -19 26 20 l0 36 62 -3 62 -3 38 -65 c37 -62 39 -68 34 -130 l-6 -66 85 8 c47 4 89 9 93 12 6 3 7 43 3 77 -1 3 -17 6 -37 7 -42 2 -64 17 -64 43 0 33 41 49 127 51 84 2 133 -15 133 -47 0 -21 -41 -44 -72 -41 -27 3 -28 1 -28 -40 0 -52 8 -74 26 -74 25 0 93 -70 109 -114 22 -57 17 -88 -18 -104 -33 -16 -189 -28 -239 -18 -31 6 -37 11 -42 40 -11 58 11 131 50 166 l35 31 -81 -7 -82 -7 -99 -99 c-93 -93 -106 -102 -192 -137 -84 -34 -123 -59 -181 -117 -12 -11 -38 -30 -59 -43 -22 -13 -46 -40 -58 -65 -12 -22 -31 -52 -44 -66 -31 -35 -37 -57 -17 -63 9 -3 25 -8 34 -12 13 -5 20 0 28 20 8 20 15 25 30 20 14 -5 26 0 38 15 l17 21 24 -25 c28 -30 52 -33 87 -9 22 14 27 14 35 2 5 -8 9 -26 9 -41 0 -20 7 -28 30 -36 33 -12 32 -32 -3 -47 -26 -12 -34 -49 -16 -72 9 -11 24 -14 51 -10 37 5 38 5 38 -29 0 -38 23 -57 58 -47 15 4 22 1 22 -10 0 -23 -26 -38 -53 -32 -20 5 -30 0 -51 -28 -30 -39 -63 -52 -100 -38 -13 6 -26 7 -28 3 -2 -4 -19 -14 -38 -23 -31 -15 -37 -23 -53 -84 -10 -37 -16 -69 -14 -71 2 -2 68 18 148 44 79 27 207 68 284 91 l141 43 24 46 c36 67 78 92 155 92 37 0 69 -6 81 -14 25 -19 18 -24 -36 -27 -50 -3 -89 -19 -110 -44 -18 -22 -34 -26 240 65 151 50 216 76 198 78 -36 4 -36 22 -1 22 14 0 23 3 20 6 -11 12 13 44 33 44 10 0 26 -7 34 -16 9 -8 16 -13 16 -9 0 3 9 1 20 -5 14 -8 19 -17 15 -30 -3 -10 1 -33 9 -49 12 -22 16 -61 16 -143 0 -62 5 -169 10 -238 6 -69 12 -179 15 -245 3 -65 9 -123 14 -128 13 -13 2 -78 -16 -99 -8 -9 -24 -19 -37 -22 -32 -8 -32 -78 1 -111 10 -11 21 -50 29 -101 7 -46 15 -97 19 -114 6 -26 4 -30 -13 -30 -11 0 -32 15 -47 33 -15 17 -51 52 -79 76 -39 33 -51 51 -51 72 0 16 -11 39 -26 56 -36 37 -80 128 -73 147 3 8 -8 40 -25 69 -17 30 -31 62 -31 70 0 29 -32 37 -59 16 -16 -13 -39 -19 -73 -19 -33 0 -62 -7 -82 -19 -22 -14 -36 -17 -46 -11 -23 15 -29 12 -23 -11 5 -18 3 -20 -16 -14 -14 4 -21 3 -19 -5 2 -8 -16 -12 -52 -14 -47 -1 -61 3 -93 27 -20 15 -42 25 -49 21 -7 -4 3 -14 26 -26 43 -22 45 -31 11 -46 -14 -6 -25 -16 -25 -22 0 -5 -8 -10 -18 -10 -13 0 -510 -243 -518 -253 -1 -1 -4 -14 -8 -30 -5 -22 -3 -27 13 -27 11 0 25 -10 32 -21 23 -44 0 -49 -225 -54 -115 -3 -213 -8 -219 -12 -15 -9 -131 -8 -146 1 -16 10 -460 -3 -491 -15 -31 -11 -80 1 -94 24 -15 23 4 51 37 55 23 3 26 7 21 31 -4 16 -1 32 5 35 7 5 11 74 11 213 0 175 -2 209 -16 224 -9 10 -22 15 -30 12 -9 -3 -14 1 -14 12 0 11 5 15 15 11 9 -3 15 0 15 10 0 9 -5 12 -11 8 -9 -5 -10 1 -5 20 7 29 -7 35 -31 11 -21 -22 -33 -9 -27 28 33 194 40 207 107 207 45 0 77 -15 77 -36 0 -9 11 -50 25 -91 28 -83 25 -93 -27 -93 -26 0 -28 -3 -28 -41 0 -22 -5 -49 -10 -60 -12 -21 -15 -412 -4 -430 4 -7 57 -9 163 -5 86 3 201 5 255 5 l99 1 -7 70 c-3 39 -9 166 -12 283 -7 242 -12 256 -67 206 -31 -28 -54 -39 -42 -19 3 5 3 15 -1 21 -5 8 -8 8 -13 0 -4 -6 -17 -13 -29 -16 -12 -2 -26 -6 -31 -10 -5 -3 -12 -1 -16 5 -4 7 -12 7 -24 0 -24 -12 -35 0 -14 15 14 11 11 12 -23 11 -32 -1 -38 2 -36 17 2 9 -2 17 -7 17 -16 0 -75 59 -67 67 4 4 11 1 15 -6 5 -8 14 -10 21 -6 9 6 5 12 -14 22 -30 16 -35 37 -6 28 16 -5 19 -3 14 12 -4 10 -12 23 -19 28 -6 6 -17 21 -25 34 -11 21 -10 23 4 18 9 -4 16 -2 16 3 0 6 10 6 26 0 37 -14 42 -13 37 14 l-5 24 -261 0 c-160 0 -267 -4 -274 -10 -7 -6 -27 -8 -43 -6 -17 3 -33 2 -35 -2 -2 -3 44 -11 103 -18 59 -6 120 -15 135 -21 36 -14 36 -48 -1 -62 -31 -12 -140 -28 -213 -30 l-49 -2 0 -55 c0 -31 5 -70 12 -89 11 -30 15 -33 52 -32 74 1 119 10 107 22 -21 21 -13 67 13 79 47 21 78 -12 59 -63 -9 -22 -8 -31 4 -40 8 -7 12 -21 10 -31 -4 -13 0 -18 15 -18 16 0 18 3 9 13 -6 8 -8 17 -4 20 12 12 23 7 23 -10 1 -17 1 -17 11 0 12 20 29 23 29 4 0 -7 -13 -21 -30 -30 -26 -16 -28 -20 -18 -43 18 -39 0 -48 -105 -49 l-92 0 -3 27 c-2 15 2 36 8 48 10 18 8 20 -27 20 -27 0 -42 -6 -51 -20 -15 -24 -65 -26 -102 -5 -14 8 -41 14 -61 15 l-35 0 0 -93 c0 -99 -20 -163 -63 -201 -26 -24 -27 -32 -1 -39 11 -3 27 -22 35 -42 9 -20 22 -38 30 -42 32 -12 9 -60 -36 -76 -9 -3 -29 3 -45 14 -16 10 -40 19 -54 19 -92 1 -186 78 -178 147 4 33 35 54 48 33 8 -13 70 -22 70 -10 0 3 -9 16 -20 30 -28 35 -26 99 5 160 31 61 31 70 2 70 -13 0 -27 4 -32 9 -6 5 -23 11 -40 13 -33 3 -45 29 -25 53 9 11 36 15 107 15 90 0 93 1 83 19 -14 28 -12 86 3 100 8 6 17 8 20 5 3 -4 18 3 33 15 15 11 30 21 34 21 17 0 27 -48 20 -95 -4 -28 -6 -53 -3 -57 2 -5 26 -8 53 -8 38 0 48 3 44 14 -3 8 -1 17 5 21 12 7 15 114 3 132 -5 7 -54 12 -144 15 -149 3 -177 13 -164 56 9 26 113 50 230 54 81 3 112 20 59 31 -53 12 -134 67 -148 100 -7 18 -16 98 -20 187 -4 85 -12 168 -18 183 -14 34 -77 72 -133 82 -43 7 -71 -10 -43 -26 44 -25 54 -38 43 -55 -14 -23 -71 -39 -89 -24 -7 6 -35 9 -63 6 -56 -5 -74 7 -86 56 -3 15 -24 46 -45 69 l-40 41 -100 -7 c-90 -7 -101 -6 -107 10 -10 26 22 83 58 105 67 41 122 21 199 -73 57 -68 64 -73 82 -60 12 10 78 30 111 35 11 2 25 20 36 52 39 102 92 150 173 159 39 4 52 1 67 -15 11 -12 20 -15 24 -9 4 5 39 28 79 49 88 49 190 72 323 75 l99 2 -2 65 c-1 64 -1 65 6 15 4 -27 12 -59 16 -69 6 -14 5 -17 -3 -12 -7 4 -12 2 -12 -3 0 -6 6 -11 14 -11 11 0 15 19 18 81 2 45 1 85 -2 89 -5 8 -105 31 -276 65 -86 16 -272 76 -377 121 -72 31 -187 109 -187 126 0 13 7 10 82 -41z m3122 13 c27 -10 18 -27 -10 -20 -25 7 -54 -7 -54 -25 0 -5 9 -9 20 -9 11 0 20 -4 20 -9 0 -19 32 -42 44 -32 6 5 22 11 36 13 22 3 25 -1 26 -27 2 -38 13 -81 30 -114 17 -33 18 -51 1 -51 -13 0 -33 27 -54 70 -8 18 -12 20 -12 8 -1 -26 29 -98 62 -146 16 -24 27 -46 24 -48 -10 -10 -61 65 -104 153 -25 52 -48 91 -51 88 -3 -2 -11 0 -18 6 -10 9 -15 7 -20 -5 -8 -22 -31 -20 -44 3 -11 21 -14 129 -3 118 3 -4 12 2 20 13 14 20 55 26 87 14z m-2090 -36 c-6 -10 -4 -10 7 0 15 13 139 17 139 4 0 -5 -17 -17 -37 -28 -21 -10 -67 -37 -103 -60 -79 -49 -97 -57 -106 -42 -5 7 -10 3 -16 -11 -8 -24 -88 -64 -116 -59 -9 2 -17 12 -17 23 0 15 19 30 70 56 39 19 79 41 90 48 18 11 18 12 -7 6 -17 -3 -28 -1 -28 5 0 6 13 13 30 16 16 4 35 13 42 22 11 13 8 14 -20 8 -20 -5 -32 -4 -32 3 0 9 18 12 93 19 12 1 16 -2 11 -10z m1082 -6 c6 -4 14 -17 18 -29 6 -19 -1 -27 -46 -56 -35 -23 -63 -34 -83 -32 -21 1 -48 -11 -93 -41 -97 -67 -156 -93 -177 -78 -10 7 -15 19 -12 27 8 22 208 123 220 111 2 -2 32 21 68 50 63 54 83 63 105 48z m-1246 -42 c-14 -11 -28 -20 -32 -20 -5 0 -8 -5 -8 -10 0 -6 8 -5 20 2 15 10 22 10 32 0 9 -9 8 -12 -7 -12 -10 0 -32 -11 -49 -24 -33 -25 -76 -42 -76 -30 0 4 8 13 18 20 15 12 15 13 -5 7 -12 -3 -24 -15 -26 -27 -3 -19 -4 -20 -12 -3 -9 22 14 50 43 52 11 0 36 16 56 33 20 18 44 32 54 32 13 0 12 -4 -8 -20z m2170 -129 c0 -5 -10 -12 -22 -15 -13 -3 -44 -12 -70 -20 -71 -22 -58 -3 15 21 73 25 77 26 77 14z m-182 -56 c-7 -7 -102 -24 -107 -19 -8 8 5 13 47 17 23 2 45 7 49 11 3 3 9 4 11 1 3 -3 3 -7 0 -10z m29 8 c-4 -3 -10 -3 -14 0 -3 4 0 7 7 7 7 0 10 -3 7 -7z m-150 -29 c-3 -3 -12 -4 -19 -1 -8 3 -5 6 6 6 11 1 17 -2 13 -5z m-2317 -89 c9 -11 10 -25 4 -48 -8 -26 -15 -33 -40 -35 -30 -3 -31 -1 -37 40 -4 28 -2 45 6 50 20 13 54 9 67 -7z m-622 -217 c3 -15 -2 -17 -28 -11 -28 5 -31 3 -28 -13 2 -10 10 -18 16 -16 7 1 17 3 24 5 18 3 22 -32 4 -39 -49 -19 -98 35 -69 75 19 27 76 26 81 -1z m19 -10 c-3 -8 -6 -5 -6 6 -1 11 2 17 5 13 3 -3 4 -12 1 -19z m3557 -57 c14 -5 16 -10 8 -15 -15 -9 -52 2 -52 15 0 11 17 11 44 0z m-3764 -137 c0 -8 -4 -14 -10 -14 -5 0 -10 9 -10 21 0 11 5 17 10 14 6 -3 10 -13 10 -21z m3880 -24 c0 -5 -4 -10 -10 -10 -5 0 -10 5 -10 10 0 6 5 10 10 10 6 0 10 -4 10 -10z m-3887 -16 c8 -8 -3 -34 -14 -34 -5 0 -9 9 -9 20 0 19 11 26 23 14z m3467 -24 c0 -5 -4 -10 -10 -10 -5 0 -10 5 -10 10 0 6 5 10 10 10 6 0 10 -4 10 -10z m-3480 -37 c0 -23 -17 -49 -26 -41 -9 10 4 58 16 58 6 0 10 -8 10 -17z m-20 -65 c0 -19 -18 -43 -25 -36 -9 9 4 48 16 48 5 0 9 -6 9 -12z m3648 -17 c3 -9 -2 -9 -22 0 -14 7 -26 16 -26 20 0 12 43 -6 48 -20z m-3674 -74 c-3 -9 -10 -17 -15 -17 -11 0 -12 34 -2 44 11 11 24 -9 17 -27z m-14 -62 c0 -14 -4 -25 -10 -25 -5 0 -10 11 -10 25 0 14 5 25 10 25 6 0 10 -11 10 -25z m-10 -69 c0 -26 -15 -43 -24 -28 -7 12 4 52 15 52 5 0 9 -11 9 -24z m-10 -75 c0 -11 -4 -23 -10 -26 -6 -4 -10 5 -10 19 0 14 5 26 10 26 6 0 10 -9 10 -19z m0 -65 c0 -14 -4 -27 -9 -30 -12 -8 -22 20 -15 39 9 23 24 18 24 -9z m0 -82 c0 -24 -14 -32 -25 -14 -9 14 4 52 16 45 5 -4 9 -17 9 -31z m0 -69 c0 -14 -4 -25 -10 -25 -5 0 -10 11 -10 25 0 14 5 25 10 25 6 0 10 -11 10 -25z m0 -60 c0 -14 -4 -25 -10 -25 -5 0 -10 11 -10 25 0 14 5 25 10 25 6 0 10 -11 10 -25z m10 -70 c0 -14 -4 -25 -9 -25 -12 0 -23 29 -15 41 10 18 24 9 24 -16z m6 -50 c8 -21 -6 -41 -17 -24 -12 19 -11 39 1 39 6 0 13 -7 16 -15z m1194 -14 c0 -6 -4 -13 -10 -16 -5 -3 -10 1 -10 9 0 9 5 16 10 16 6 0 10 -4 10 -9z m257 -41 c7 -26 19 -26 26 0 3 13 11 18 21 14 11 -4 14 -18 12 -52 -3 -53 -21 -66 -37 -25 -12 28 -12 28 -18 5 -3 -13 -9 -23 -13 -23 -5 1 -12 1 -18 1 -5 0 -10 23 -10 50 0 39 3 50 16 50 9 0 18 -9 21 -20z m-1437 -16 c0 -8 -4 -14 -9 -14 -11 0 -22 26 -14 34 9 9 23 -3 23 -20z m10 -65 c0 -10 -4 -19 -10 -19 -5 0 -10 12 -10 26 0 14 4 23 10 19 6 -3 10 -15 10 -26z m1201 6 c-1 -15 -24 -12 -29 3 -3 9 2 13 12 10 10 -1 17 -7 17 -13z m44 -5 c3 -5 1 -10 -4 -10 -6 0 -11 5 -11 10 0 6 2 10 4 10 3 0 8 -4 11 -10z m-372 -31 c-2 -8 7 -19 20 -24 20 -9 33 -55 15 -55 -5 0 -24 0 -43 0 -36 0 -36 0 -30 38 4 20 8 43 11 50 5 18 30 9 27 -9z m344 -6 c-4 -3 -7 0 -7 7 0 7 3 10 7 7 3 -4 3 -10 0 -14z m-1202 -14 c4 -11 4 -23 0 -27 -7 -7 -25 17 -25 36 0 20 18 14 25 -9z m1172 -11 c-3 -8 -6 -5 -6 6 -1 11 2 17 5 13 3 -3 4 -12 1 -19z m-770 -5 c2 -6 -6 -21 -19 -33 -17 -15 -18 -19 -5 -15 13 6 17 2 17 -15 0 -18 -5 -21 -37 -18 -37 3 -38 4 -36 43 1 22 2 44 2 48 1 13 74 4 78 -10z m-377 -60 c0 -18 -17 -16 -24 3 -8 22 4 40 15 23 5 -8 9 -20 9 -26z m17 -48 c8 -22 -6 -33 -17 -15 -13 20 -12 30 0 30 6 0 13 -7 17 -15z m220 -22 c-4 -3 -7 0 -7 7 0 7 3 10 7 7 3 -4 3 -10 0 -14z m-53 -15 c7 -11 7 -26 0 -45 -7 -22 -17 -29 -42 -31 l-32 -3 0 51 0 51 31 -3 c18 -2 37 -11 43 -20z m3127 0 l0 -23 11 23 c20 40 54 26 35 -15 -9 -19 -8 -26 3 -33 11 -7 12 -12 4 -20 -8 -8 -14 -7 -24 5 -16 19 -30 19 -30 -1 0 -9 -7 -14 -17 -12 -9 2 -16 6 -15 11 1 4 2 25 2 47 0 29 4 40 15 40 9 0 15 -9 16 -22z m-490 -15 c12 -31 2 -86 -14 -80 -7 2 -13 18 -15 36 -3 26 -7 31 -22 26 -23 -7 -35 11 -20 30 21 25 59 18 71 -12z m-2791 7 c0 -5 0 -12 0 -15 0 -3 9 -21 20 -40 22 -38 26 -65 10 -65 -5 0 -15 19 -21 43 -7 23 -16 46 -21 52 -11 13 -10 35 2 35 6 0 10 -4 10 -10z m1303 -22 c-2 -5 -3 -24 -3 -44 0 -31 -3 -35 -22 -32 -20 3 -23 9 -21 43 1 22 2 41 2 43 1 2 11 2 24 0 12 -2 21 -6 20 -10z m-1095 -122 c40 -42 62 -72 62 -88 0 -15 -21 -44 -60 -82 l-59 -59 -28 18 c-15 10 -49 36 -75 58 -42 35 -48 45 -48 79 0 32 8 46 48 88 66 68 83 67 160 -14z"/>
 <path d="M2890 2360 c0 -5 7 -10 16 -10 8 0 12 5 9 10 -3 6 -10 10 -16 10 -5 0 -9 -4 -9 -10z"/>
 <path d="M2955 2350 c3 -5 8 -10 11 -10 2 0 4 5 4 10 0 6 -5 10 -11 10 -5 0 -7 -4 -4 -10z"/>
 <path d="M2167 2329 c7 -7 15 -10 18 -7 3 3 -2 9 -12 12 -14 6 -15 5 -6 -5z"/>
 <path d="M2870 2304 c0 -20 -4 -33 -10 -29 -5 3 -12 -5 -16 -19 -6 -24 -6 -24 -25 -5 -11 11 -18 27 -17 37 2 12 -5 18 -22 20 -20 3 -23 1 -12 -9 22 -23 14 -57 -18 -76 -30 -17 -38 -37 -20 -48 5 -3 7 -11 4 -18 -13 -34 66 -93 155 -117 42 -11 44 -11 78 22 19 18 41 48 49 67 16 39 18 63 3 41 -7 -11 -8 -2 -3 32 3 27 2 54 -5 65 -9 16 -10 14 -11 -13 0 -18 -8 -39 -20 -49 -11 -10 -20 -13 -20 -7 0 6 4 12 9 14 4 2 11 22 14 46 4 31 1 47 -10 58 -13 13 -17 13 -24 2 -5 -7 -9 -21 -9 -30 0 -10 -4 -18 -10 -18 -5 0 -10 13 -10 29 0 26 -14 41 -41 41 -5 0 -9 -16 -9 -36z m76 -55 c3 -6 0 -18 -9 -26 -13 -13 -14 -12 -14 11 0 27 11 34 23 15z"/>
 <path d="M2803 2323 c4 -3 10 -3 14 0 3 4 0 7 -7 7 -7 0 -10 -3 -7 -7z"/>
 <path d="M1885 2300 c-49 -4 -110 -14 -135 -22 l-45 -14 44 -8 c24 -4 47 -3 50 2 3 5 35 12 71 16 36 3 77 9 93 12 21 5 27 3 27 -10 0 -10 -9 -16 -25 -16 -14 0 -25 -4 -25 -9 0 -10 -34 -23 -65 -25 -11 -1 -40 -12 -65 -24 -33 -16 -38 -21 -17 -17 44 9 369 8 402 -1 26 -6 28 -5 17 8 -11 14 -72 42 -134 62 -38 12 -15 22 46 22 35 -1 62 -4 59 -8 -6 -12 22 -10 54 3 l28 12 -30 9 c-43 13 -245 18 -350 8z"/>
 <path d="M3197 2280 c-14 -6 -21 -30 -8 -30 5 0 11 6 14 13 9 24 30 -11 43 -70 l12 -58 1 55 c1 61 15 94 29 72 6 -9 18 -11 35 -6 35 8 35 24 0 25 -72 4 -114 4 -126 -1z"/>
 <path d="M3155 2260 c3 -5 8 -10 11 -10 2 0 4 5 4 10 0 6 -5 10 -11 10 -5 0 -7 -4 -4 -10z"/>
 <path d="M1754 2149 c-7 -11 78 -16 268 -15 107 1 192 6 197 11 7 7 -73 10 -225 10 -130 0 -238 -3 -240 -6z"/>
 <path d="M2679 2144 c-11 -14 -10 -22 7 -51 41 -71 202 -141 212 -92 2 12 -9 19 -41 27 -47 12 -132 79 -142 112 -8 24 -18 25 -36 4z"/>
 <path d="M2485 2113 c-38 -2 -85 -5 -102 -8 -33 -6 -33 -7 -33 -60 0 -61 9 -67 43 -31 23 24 133 86 154 86 6 0 15 5 18 10 3 6 3 9 -2 8 -4 -1 -39 -3 -78 -5z"/>
 <path d="M1772 2033 c-7 -43 -15 -90 -18 -105 -6 -24 -3 -28 32 -37 22 -5 88 -10 148 -11 85 0 114 -4 127 -16 24 -22 13 -42 -24 -46 l-32 -3 48 -50 c41 -43 45 -45 30 -18 -10 18 -21 33 -25 33 -5 0 -8 7 -8 15 0 9 9 15 25 15 14 0 25 -4 25 -10 0 -5 7 -10 15 -10 8 0 15 5 15 11 0 6 10 9 23 7 23 -4 22 -2 -15 70 -22 41 -36 82 -33 90 3 8 3 42 -1 74 l-7 58 -47 0 c-42 0 -48 -2 -43 -19 6 -22 -13 -37 -30 -24 -7 5 -30 11 -52 12 -50 4 -59 9 -44 27 10 12 3 14 -43 14 l-54 0 -12 -77z m219 -38 l30 -16 -18 -29 c-20 -34 -29 -37 -55 -13 -10 9 -36 17 -60 17 -51 1 -65 25 -16 28 54 2 57 3 70 16 15 15 13 15 49 -3z"/>
 <path d="M1964 1977 c-9 -24 6 -44 18 -22 7 11 6 21 -1 28 -7 7 -12 6 -17 -6z"/>
 <path d="M1970 2090 c0 -7 3 -10 7 -7 3 4 3 10 0 14 -4 3 -7 0 -7 -7z"/>
 <path d="M3254 2048 c-4 -7 -3 -8 4 -4 12 7 16 16 8 16 -3 0 -8 -5 -12 -12z"/>
 <path d="M3201 1990 c-40 -9 -63 -30 -53 -47 6 -9 24 -10 75 -2 38 6 95 9 128 7 61 -3 66 0 49 33 -9 16 -21 19 -88 18 -42 -1 -92 -5 -111 -9z m134 -10 c-3 -5 -10 -10 -16 -10 -5 0 -9 5 -9 10 0 6 7 10 16 10 8 0 12 -4 9 -10z m-85 -10 c0 -5 -4 -10 -10 -10 -5 0 -10 5 -10 10 0 6 5 10 10 10 6 0 10 -4 10 -10z m-63 -7 c-4 -3 -10 -3 -14 0 -3 4 0 7 7 7 7 0 10 -3 7 -7z"/>
 <path d="M996 1939 c-41 -12 -98 -39 -137 -65 -64 -42 -68 -48 -75 -90 -4 -29 -2 -50 5 -57 8 -8 11 -8 11 2 0 7 5 9 12 5 8 -5 6 -10 -5 -19 -13 -9 -14 -18 -5 -51 18 -70 21 -115 7 -140 -10 -20 -10 -48 0 -152 7 -70 20 -139 27 -154 15 -28 54 -46 74 -33 6 4 20 -1 31 -11 15 -14 38 -19 82 -20 34 0 78 -3 97 -7 19 -3 98 -9 175 -13 77 -3 171 -8 208 -10 61 -3 68 -2 63 14 -18 60 -17 69 9 101 17 20 33 30 44 27 19 -7 49 10 38 20 -4 5 -56 26 -115 49 -87 33 -108 45 -110 63 -2 12 -10 22 -18 22 -8 0 -24 12 -37 26 -12 14 -34 32 -49 40 -16 8 -28 21 -28 29 0 8 -39 41 -87 73 -97 66 -179 146 -189 187 -11 46 2 113 30 150 31 40 33 40 -58 14z"/>
 <path d="M3203 1923 c-18 -2 -33 -9 -33 -15 0 -10 26 -9 193 6 15 2 30 6 34 9 7 7 -138 7 -194 0z"/>
 <path d="M1683 1883 c4 -3 10 -3 14 0 3 4 0 7 -7 7 -7 0 -10 -3 -7 -7z"/>
 <path d="M1603 1847 c-17 -33 -22 -104 -8 -126 9 -15 75 -45 82 -37 2 2 -1 14 -7 27 -12 21 -9 73 6 125 5 17 0 24 -25 32 -29 10 -32 9 -48 -21z"/>
 <path d="M636 1840 c-31 -28 -63 -82 -80 -137 -6 -18 -3 -23 11 -23 11 0 43 -12 72 -26 30 -15 56 -23 61 -18 8 8 12 122 7 202 -3 41 -25 42 -71 2z"/>
 <path d="M735 1860 c-4 -6 -4 -28 0 -48 4 -20 7 -65 6 -99 -2 -58 0 -63 20 -63 19 0 21 3 13 33 -4 17 -8 62 -9 99 -1 67 -15 103 -30 78z"/>
 <path d="M1770 1831 c25 -21 50 -36 57 -34 7 3 18 1 25 -3 7 -4 22 -8 33 -9 11 -1 35 -2 54 -3 26 -2 43 -12 74 -47 46 -51 82 -64 52 -19 -32 49 -59 74 -79 74 -12 0 -28 5 -36 10 -13 9 -13 11 0 20 12 8 9 10 -12 10 -16 0 -28 5 -28 11 0 7 17 10 45 7 25 -2 45 0 45 4 0 4 -46 8 -102 7 -57 0 -119 3 -138 6 l-35 5 45 -39z"/>
 <path d="M1692 1794 c-14 -65 0 -103 49 -142 34 -25 50 -31 79 -28 20 1 42 6 49 10 6 4 15 5 20 1 6 -3 15 4 21 15 8 14 17 19 28 15 11 -4 14 -3 7 4 -5 5 -39 12 -75 14 -75 4 -140 31 -140 57 0 24 26 43 50 37 11 -3 17 -1 14 4 -6 10 -80 59 -88 59 -2 0 -9 -21 -14 -46z"/>
 <path d="M150 1773 c-14 -3 -35 -14 -47 -26 -25 -23 -32 -47 -8 -27 8 7 15 10 15 6 0 -3 11 -1 25 4 55 21 104 -3 189 -90 43 -45 80 -79 82 -77 8 8 -191 206 -211 210 -11 2 -31 2 -45 0z"/>
 <path d="M1826 1763 c-6 -14 -5 -15 5 -6 7 7 10 15 7 18 -3 3 -9 -2 -12 -12z"/>
 <path d="M1865 1750 c-8 -13 35 -40 63 -40 14 0 40 -14 60 -31 27 -24 37 -28 43 -17 8 13 -29 60 -62 78 -23 13 -98 20 -104 10z"/>
 <path d="M2113 1753 c4 -3 10 -3 14 0 3 4 0 7 -7 7 -7 0 -10 -3 -7 -7z"/>
 <path d="M1760 1736 c0 -2 7 -9 15 -16 12 -10 15 -10 15 4 0 9 -7 16 -15 16 -8 0 -15 -2 -15 -4z"/>
 <path d="M2130 1720 c-6 -11 -16 -17 -22 -14 -6 4 -3 -4 8 -18 24 -32 30 -29 32 17 2 40 -3 44 -18 15z"/>
 <path d="M1822 1718 c5 -15 28 -23 28 -10 0 5 -7 13 -16 16 -10 4 -14 1 -12 -6z"/>
 <path d="M115 1694 c-19 -15 -17 -15 25 -9 57 9 76 25 30 25 -19 0 -44 -8 -55 -16z"/>
 <path d="M2220 1674 c-35 -14 -34 -14 27 -9 61 6 100 -10 46 -18 -26 -4 -26 -4 5 -6 36 -1 40 8 14 32 -22 20 -45 20 -92 1z"/>
 <path d="M2083 1673 c4 -3 10 -3 14 0 3 4 0 7 -7 7 -7 0 -10 -3 -7 -7z"/>
 <path d="M480 1653 c-8 -2 -21 -7 -29 -9 -10 -3 -11 -8 -3 -16 14 -14 62 -1 62 17 0 16 -5 17 -30 8z"/>
 <path d="M540 1645 c0 -10 10 -15 34 -15 18 0 59 -14 90 -30 31 -17 56 -27 56 -23 0 13 -136 83 -159 83 -12 0 -21 -6 -21 -15z"/>
 <path d="M1695 1651 c-3 -6 -8 -61 -11 -123 l-6 -113 36 79 c19 43 42 86 51 96 15 17 15 19 -3 24 -10 4 -28 15 -40 26 -11 11 -24 16 -27 11z"/>
 <path d="M2055 1650 c3 -5 8 -10 11 -10 2 0 4 5 4 10 0 6 -5 10 -11 10 -5 0 -7 -4 -4 -10z"/>
 <path d="M1930 1640 c0 -7 3 -10 7 -7 3 4 3 10 0 14 -4 3 -7 0 -7 -7z"/>
 <path d="M2163 1643 c4 -3 10 -3 14 0 3 4 0 7 -7 7 -7 0 -10 -3 -7 -7z"/>
 <path d="M730 1619 c0 -4 5 -11 11 -15 6 -3 9 -17 6 -30 -3 -20 0 -23 19 -22 20 2 24 8 24 34 0 28 -4 32 -30 36 -16 3 -30 1 -30 -3z m47 -16 c-4 -3 -10 -3 -14 0 -3 4 0 7 7 7 7 0 10 -3 7 -7z"/>
 <path d="M2080 1626 c0 -2 11 -24 25 -47 14 -24 25 -52 25 -61 0 -9 4 -19 8 -22 5 -3 9 26 9 65 l0 69 -34 0 c-18 0 -33 -2 -33 -4z"/>
 <path d="M419 1603 c6 -12 11 -33 11 -48 0 -15 4 -24 10 -20 13 8 2 56 -17 75 -14 13 -14 13 -4 -7z"/>
 <path d="M1878 1614 c-4 -4 -22 -8 -39 -10 -18 -2 -39 -10 -47 -16 -18 -15 -75 -136 -90 -192 l-11 -38 38 38 c46 47 114 108 121 109 3 0 25 9 48 19 40 18 43 22 40 55 -3 30 -7 36 -28 39 -14 2 -29 0 -32 -4z"/>
 <path d="M2036 1596 c-10 -40 34 -105 67 -98 4 1 7 -3 7 -10 0 -6 2 -9 5 -7 8 9 -16 83 -37 112 -24 33 -34 34 -42 3z"/>
 <path d="M465 1591 c-10 -17 12 -21 25 -6 10 12 10 15 -3 15 -9 0 -18 -4 -22 -9z"/>
 <path d="M366 1547 c3 -10 9 -15 12 -12 3 3 0 11 -7 18 -10 9 -11 8 -5 -6z"/>
 <path d="M2522 1527 c-7 -8 -9 -29 -5 -52 4 -27 3 -36 -5 -31 -7 4 -12 18 -12 31 0 13 -5 27 -11 31 -7 4 -9 0 -6 -12 13 -44 17 -100 8 -113 -10 -15 -15 -4 -27 61 -3 21 -9 36 -13 33 -4 -2 -19 2 -34 10 -33 17 -35 4 -4 -38 30 -40 69 -117 60 -117 -4 0 6 -13 22 -30 16 -16 26 -32 23 -35 -9 -9 -89 67 -102 99 -17 39 -60 86 -81 86 -24 0 -18 -40 10 -62 14 -11 25 -24 25 -31 0 -6 -13 2 -29 17 -31 30 -42 25 -34 -16 3 -16 22 -38 49 -58 24 -17 42 -36 38 -41 -4 -6 -14 -4 -27 5 -34 25 -108 58 -115 52 -3 -3 5 -18 19 -32 20 -21 21 -27 9 -34 -11 -7 -6 -10 18 -10 17 0 32 5 32 11 0 5 5 7 10 4 6 -4 8 -10 5 -15 -7 -11 20 -20 59 -20 18 0 37 -5 44 -12 9 -9 12 -9 12 3 0 9 -9 24 -20 34 -11 10 -17 22 -14 27 4 6 17 -2 30 -17 13 -16 24 -25 24 -22 0 3 21 -3 46 -13 52 -23 58 -24 49 -10 -4 7 3 9 19 6 14 -3 26 -1 26 3 0 15 -29 46 -36 39 -4 -4 -1 -14 6 -23 16 -20 6 -19 -14 1 -29 28 -4 49 74 64 68 13 70 14 47 26 -23 13 -42 40 -39 57 3 10 -6 9 -30 -4 -41 -22 -27 0 23 36 46 33 50 39 34 47 -13 8 -20 7 -27 -6 -5 -9 -13 -14 -19 -11 -5 4 -2 18 7 33 16 27 16 27 -2 5 -11 -11 -32 -37 -47 -57 -31 -40 -48 -47 -40 -16 3 11 9 20 13 20 4 0 19 18 34 40 l26 40 -29 0 c-16 0 -32 6 -34 13 -5 11 -11 -17 -8 -35 0 -5 -4 -8 -10 -8 -6 0 -9 9 -6 19 7 27 -7 46 -21 28z m22 -114 c-11 -45 -23 -71 -23 -52 -2 30 11 79 20 79 5 0 6 -12 3 -27z m-24 -89 c0 -8 -4 -12 -10 -9 -5 3 -10 10 -10 16 0 5 5 9 10 9 6 0 10 -7 10 -16z"/>
 <path d="M768 1515 c-11 -11 2 -328 15 -355 14 -28 72 -70 98 -70 22 0 36 39 18 50 -89 52 -105 87 -116 258 -4 68 -11 121 -15 117z"/>
 <path d="M1933 1513 c4 -3 10 -3 14 0 3 4 0 7 -7 7 -7 0 -10 -3 -7 -7z"/>
 <path d="M2353 1495 c-3 -9 -3 -18 -1 -21 3 -3 8 4 11 16 6 23 -1 27 -10 5z"/>
 <path d="M1747 1384 c-46 -47 -64 -87 -52 -123 5 -16 1 -19 -30 -19 -19 0 -47 -7 -61 -17 -21 -14 -24 -21 -19 -48 10 -47 47 -73 59 -41 4 11 2 15 -8 11 -25 -10 -41 20 -27 49 10 24 12 24 33 10 27 -19 38 -20 38 -5 0 12 29 38 43 39 4 0 7 -7 7 -15 0 -8 9 -15 19 -15 11 0 23 -9 26 -20 3 -11 15 -20 26 -20 10 0 19 -4 19 -10 0 -5 7 -7 15 -4 12 5 13 10 4 20 -9 11 -6 13 21 10 17 -2 37 -9 43 -15 14 -14 2 -14 -26 0 -17 9 -20 9 -10 -1 12 -13 134 -24 172 -15 22 6 22 7 7 24 -22 25 -9 33 21 14 24 -16 26 -16 40 3 12 16 15 17 23 4 6 -10 8 7 7 50 -3 70 -10 90 -33 90 -18 0 -18 -14 1 -30 19 -16 19 -54 0 -70 -12 -10 -20 -9 -41 5 -22 14 -25 22 -20 47 3 17 6 37 6 44 0 8 7 14 15 14 8 0 15 7 15 16 0 26 -73 15 -85 -13 -11 -27 -31 -29 -77 -9 -18 8 -45 17 -59 20 -15 3 -36 19 -46 36 l-19 30 -47 -46z m293 -44 c0 -5 -7 -10 -15 -10 -8 0 -15 5 -15 10 0 6 7 10 15 10 8 0 15 -4 15 -10z m-52 -32 c20 -20 14 -58 -10 -67 -43 -17 -85 31 -58 64 15 18 52 19 68 3z m-83 -88 c20 -23 45 -26 63 -8 8 8 15 9 23 1 14 -14 -15 -43 -45 -43 -28 0 -76 36 -76 56 0 20 14 17 35 -6z"/>
 <path d="M1934 1286 c-8 -21 11 -37 33 -29 11 4 12 8 3 13 -7 4 -16 14 -21 21 -6 11 -9 10 -15 -5z"/>
 <path d="M2264 1399 c-10 -12 -38 -34 -60 -50 -39 -27 -41 -31 -34 -61 4 -18 20 -57 35 -86 22 -43 25 -55 15 -67 -7 -9 -10 -19 -6 -22 4 -4 11 -1 15 6 5 7 14 10 20 6 9 -5 9 -10 1 -20 -8 -10 -2 -18 25 -34 45 -26 74 -88 90 -191 6 -41 15 -83 18 -92 4 -10 9 -25 12 -33 2 -8 10 -15 18 -15 18 0 63 200 47 210 -14 9 -2 60 15 60 14 0 41 111 32 134 -9 24 -83 53 -167 67 -83 13 -100 22 -100 50 0 11 -5 28 -12 38 -18 29 -4 52 29 45 27 -5 28 -4 28 35 0 23 0 41 -1 41 0 0 -9 -10 -20 -21z"/>
 <path d="M3700 1398 c0 -9 5 -20 11 -23 17 -11 18 -2 3 19 -12 17 -14 17 -14 4z"/>
 <path d="M3555 1288 c-82 -27 -195 -63 -250 -81 -98 -31 -100 -33 -103 -65 -3 -25 3 -39 27 -62 30 -30 83 -41 96 -20 10 17 23 11 31 -12 8 -27 22 -38 49 -38 16 0 29 -20 60 -86 l40 -87 110 2 c65 1 115 7 123 14 12 9 14 54 11 244 -2 128 -6 233 -9 233 -4 0 -12 -6 -19 -12 -11 -11 -13 -10 -8 5 8 21 22 24 -158 -35z m-155 -92 c0 -13 7 -26 15 -30 11 -4 15 2 15 24 0 21 5 30 16 30 12 0 14 -9 12 -42 -3 -43 -3 -43 -43 -43 -40 0 -40 0 -43 43 -2 33 0 42 12 42 10 0 16 -9 16 -24z"/>
 <path d="M2060 1280 c0 -13 7 -20 20 -20 19 0 19 1 3 20 -10 11 -19 20 -20 20 -2 0 -3 -9 -3 -20z"/>
 <path d="M2723 1284 c-18 -8 -34 -10 -37 -5 -3 4 -21 3 -39 -2 -32 -10 -33 -12 -20 -36 7 -15 13 -33 13 -42 0 -35 71 -40 94 -7 25 35 19 41 -34 36 -28 -3 -53 -1 -56 3 -5 9 38 18 106 21 l45 3 -20 21 c-18 19 -23 20 -52 8z"/>
 <path d="M3776 1281 c-3 -4 -3 -76 -1 -158 3 -83 5 -173 5 -202 0 -40 3 -51 16 -51 15 0 16 11 11 88 -4 48 -7 142 -7 210 0 109 -7 141 -24 113z"/>
 <path d="M3214 1261 c-42 -25 -72 -66 -80 -107 -17 -89 33 -164 110 -164 40 0 66 13 66 33 0 4 -6 5 -12 0 -30 -18 -90 13 -114 58 -30 60 -8 145 48 179 18 11 29 20 23 20 -5 0 -24 -9 -41 -19z"/>
 <path d="M2615 1190 c3 -5 8 -10 11 -10 3 0 2 5 -1 10 -3 6 -8 10 -11 10 -3 0 -2 -4 1 -10z"/>
 <path d="M920 1150 c0 -7 3 -10 7 -7 3 4 3 10 0 14 -4 3 -7 0 -7 -7z"/>
 <path d="M1080 1130 c0 -7 3 -10 7 -7 3 4 3 10 0 14 -4 3 -7 0 -7 -7z"/>
 <path d="M2950 1090 c-74 -26 -195 -65 -267 -87 -119 -34 -161 -53 -118 -53 8 0 15 -5 15 -11 0 -7 -9 -9 -21 -6 -15 4 -19 2 -15 -9 6 -16 -5 -19 -20 -4 -7 7 -16 -15 -28 -67 -10 -43 -20 -86 -22 -95 -8 -28 86 -25 112 3 38 42 75 54 192 59 65 3 116 10 120 16 4 6 17 16 29 23 19 10 26 8 44 -10 21 -21 28 -21 213 -18 105 2 194 5 198 6 14 6 -21 95 -46 118 -22 21 -29 22 -55 12 -25 -9 -38 -8 -78 9 -54 22 -90 68 -99 126 -4 21 -9 38 -13 37 -3 -1 -67 -23 -141 -49z m190 -121 c0 -16 -4 -19 -21 -14 -19 6 -21 4 -15 -19 5 -21 3 -26 -13 -26 -15 0 -20 9 -23 40 l-4 40 38 0 c32 0 38 -3 38 -21z"/>
 <path d="M1770 1121 c-23 -4 -31 -9 -22 -14 17 -12 15 -48 -4 -62 -13 -9 22 -11 167 -11 l184 1 0 41 c0 22 -4 41 -10 42 -44 5 -287 7 -315 3z"/>
 <path d="M973 1113 c-7 -2 -13 -11 -13 -18 0 -7 6 -16 13 -19 10 -5 10 -7 0 -12 -18 -8 -16 -34 2 -34 8 0 17 11 21 25 5 21 11 24 38 22 25 -2 32 2 34 21 4 23 -13 31 -21 10 -4 -10 -6 -10 -6 0 -1 12 -44 15 -68 5z"/>
 <path d="M1125 1111 c-3 -2 -5 -10 -5 -17 0 -11 58 -13 281 -13 300 0 368 8 122 14 -133 4 -268 10 -361 18 -18 2 -35 1 -37 -2z"/>
 <path d="M920 1100 c0 -7 3 -10 7 -7 3 4 3 10 0 14 -4 3 -7 0 -7 -7z"/>
 <path d="M2173 1063 c9 -2 23 -2 30 0 6 3 -1 5 -18 5 -16 0 -22 -2 -12 -5z"/>
 <path d="M2251 1045 c34 -19 69 -109 69 -181 0 -16 6 -39 14 -50 14 -17 14 -15 11 26 -11 123 -36 188 -80 208 -36 17 -46 14 -14 -3z"/>
 <path d="M1662 1040 c2 -8 18 -16 34 -17 18 -1 22 0 9 4 -11 3 -26 10 -34 17 -11 9 -13 8 -9 -4z"/>
 <path d="M2180 1030 c0 -6 9 -20 20 -32 10 -12 17 -25 14 -30 -3 -4 -1 -8 5 -8 5 0 13 5 16 11 7 11 35 -33 35 -55 0 -7 -11 -23 -26 -36 -16 -16 -23 -31 -20 -45 4 -15 -4 -25 -36 -43 -48 -28 -111 -24 -147 9 -19 18 -22 18 -28 4 -6 -16 1 -260 14 -478 l6 -108 191 7 191 6 80 38 c44 21 161 78 260 126 l180 87 -44 9 c-90 20 -120 61 -115 158 1 30 0 67 -3 83 -5 24 -9 27 -47 27 -22 0 -48 -5 -56 -10 -13 -8 -12 -10 3 -10 20 0 32 -23 22 -40 -4 -6 -8 -67 -8 -135 -2 -108 -5 -127 -23 -152 -25 -33 -90 -73 -121 -73 -13 0 -24 -8 -28 -20 -10 -32 -57 -50 -128 -50 -49 0 -70 5 -90 20 -14 11 -31 20 -39 20 -26 0 -107 59 -122 89 -16 29 -40 276 -29 294 12 20 86 47 126 46 24 -1 48 1 54 4 21 13 9 179 -18 249 -6 15 -21 30 -33 33 -11 4 -29 9 -38 11 -10 3 -18 0 -18 -6z"/>
 <path d="M3332 1010 c7 -10 14 -18 15 -16 6 6 -9 36 -18 36 -5 0 -4 -9 3 -20z"/>
 <path d="M1985 955 c-4 -30 -4 -71 -1 -90 l7 -36 18 23 c27 35 32 56 25 109 -5 38 -11 49 -25 49 -14 0 -19 -11 -24 -55z"/>
 <path d="M2483 975 c0 -9 4 -14 9 -13 5 2 10 8 10 13 0 5 -5 11 -10 13 -5 1 -9 -4 -9 -13z"/>
 <path d="M742 970 c-140 -20 -132 -37 19 -42 77 -2 105 0 102 8 -8 20 18 28 91 26 52 -1 74 -5 82 -17 11 -14 25 -15 113 -7 99 9 121 15 107 29 -10 10 -442 13 -514 3z"/>
 <path d="M3385 928 c14 -24 25 -53 25 -65 0 -14 6 -23 15 -23 11 0 7 15 -17 65 -18 36 -36 65 -40 65 -4 0 4 -19 17 -42z"/>
 <path d="M956 873 c7 -113 26 -121 22 -11 -2 60 -7 88 -15 88 -9 0 -11 -21 -7 -77z"/>
 <path d="M1413 943 c-7 -2 -13 -11 -13 -19 0 -8 -9 -14 -21 -14 l-20 0 20 -26 c11 -14 17 -32 14 -40 -3 -8 -2 -21 1 -31 6 -14 8 -14 21 3 14 18 16 18 26 2 5 -10 21 -18 35 -18 27 0 27 10 -3 95 -17 49 -31 60 -60 48z m-6 -120 c-4 -3 -7 0 -7 7 0 7 3 10 7 7 3 -4 3 -10 0 -14z"/>
 <path d="M3440 901 c0 -6 4 -13 10 -16 6 -3 7 1 4 9 -7 18 -14 21 -14 7z"/>
 <path d="M3802 810 c0 -14 2 -19 5 -12 2 6 2 18 0 25 -3 6 -5 1 -5 -13z"/>
 <path d="M1974 809 c-3 -6 -2 -108 2 -227 5 -120 9 -247 9 -285 0 -47 4 -67 13 -67 14 0 14 -10 2 205 -5 94 -10 218 -11 278 -1 59 -3 107 -5 107 -2 0 -6 -5 -10 -11z"/>
 <path d="M1197 795 c-4 -8 -3 -16 1 -19 4 -3 9 4 9 15 2 23 -3 25 -10 4z"/>
 <path d="M3578 803 c7 -3 16 -2 19 1 4 3 -2 6 -13 5 -11 0 -14 -3 -6 -6z"/>
 <path d="M2680 790 c-21 -7 -21 -8 -5 -9 11 0 27 4 35 9 18 11 5 11 -30 0z"/>
 <path d="M2923 793 c4 -3 10 -3 14 0 3 4 0 7 -7 7 -7 0 -10 -3 -7 -7z"/>
 <path d="M2958 793 c7 -3 16 -2 19 1 4 3 -2 6 -13 5 -11 0 -14 -3 -6 -6z"/>
 <path d="M3013 793 c4 -3 10 -3 14 0 3 4 0 7 -7 7 -7 0 -10 -3 -7 -7z"/>
 <path d="M3043 793 c4 -3 10 -3 14 0 3 4 0 7 -7 7 -7 0 -10 -3 -7 -7z"/>
 <path d="M3118 793 c29 -2 74 -2 100 0 26 2 2 3 -53 3 -55 0 -76 -1 -47 -3z"/>
 <path d="M3297 793 c18 -2 50 -2 70 0 21 2 7 4 -32 4 -38 0 -55 -2 -38 -4z"/>
 <path d="M1343 773 c4 -3 10 -3 14 0 3 4 0 7 -7 7 -7 0 -10 -3 -7 -7z"/>
 <path d="M1400 770 c0 -5 5 -10 10 -10 6 0 10 5 10 10 0 6 -4 10 -10 10 -5 0 -10 -4 -10 -10z"/>
 <path d="M1463 773 c4 -3 10 -3 14 0 3 4 0 7 -7 7 -7 0 -10 -3 -7 -7z"/>
 <path d="M2620 765 c-20 -24 -6 -28 15 -5 10 11 13 20 8 20 -6 0 -16 -7 -23 -15z"/>
 <path d="M3450 770 c0 -5 5 -10 10 -10 6 0 10 5 10 10 0 6 -4 10 -10 10 -5 0 -10 -4 -10 -10z"/>
 <path d="M3540 766 c0 -5 11 -28 25 -52 18 -31 32 -44 53 -46 21 -2 33 -15 57 -58 34 -62 80 -116 89 -102 3 5 4 60 1 121 -5 145 -7 146 -132 146 -51 0 -93 -4 -93 -9z"/>
 <path d="M3051 762 c-23 -4 -23 -5 -16 -78 5 -53 3 -74 -5 -74 -6 0 -8 -5 -5 -10 4 -6 43 -9 96 -8 74 3 90 6 95 20 3 10 8 17 12 17 4 -1 9 -1 12 1 3 1 19 3 35 5 17 2 53 6 80 10 28 3 69 13 91 21 32 12 47 13 62 5 32 -17 33 -14 10 34 -19 38 -25 44 -45 39 -15 -4 -31 0 -43 11 -16 15 -39 16 -187 13 -92 -1 -179 -4 -192 -6z"/>
 <path d="M2873 706 c3 -31 9 -60 12 -66 4 -7 33 -10 72 -8 l65 3 -6 44 c-3 24 -6 51 -6 60 0 14 -13 17 -71 19 l-72 3 6 -55z m117 15 c14 -27 13 -37 -6 -55 -19 -19 -28 -20 -46 -3 -7 6 -20 12 -28 12 -18 0 -20 37 -2 43 8 2 10 -3 6 -15 -3 -10 3 -6 12 10 22 32 49 35 64 8z"/>
 <path d="M2953 713 c4 -3 10 -3 14 0 3 4 0 7 -7 7 -7 0 -10 -3 -7 -7z"/>
 <path d="M2953 673 c4 -3 10 -3 14 0 3 4 0 7 -7 7 -7 0 -10 -3 -7 -7z"/>
 <path d="M3793 673 c1 -48 7 -83 15 -92 7 -7 15 -12 17 -10 2 2 1 43 -2 92 -4 60 -10 87 -18 87 -10 0 -13 -21 -12 -77z"/>
 <path d="M1410 707 c0 -23 4 -36 10 -32 13 8 13 35 0 55 -7 11 -10 5 -10 -23z"/>
 <path d="M1190 709 c0 -5 9 -9 20 -9 11 0 20 2 20 4 0 2 -9 6 -20 9 -11 3 -20 1 -20 -4z"/>
 <path d="M2320 710 c0 -5 5 -10 11 -10 5 0 7 5 4 10 -3 6 -8 10 -11 10 -2 0 -4 -4 -4 -10z"/>
 <path d="M2524 708 c-4 -7 -3 -8 4 -4 12 7 16 16 8 16 -3 0 -8 -5 -12 -12z"/>
 <path d="M2600 708 c0 -11 58 -10 64 0 3 5 -10 8 -29 8 -19 -1 -35 -4 -35 -8z"/>
 <path d="M657 695 c-4 -8 -3 -16 1 -19 4 -3 9 4 9 15 2 23 -3 25 -10 4z"/>
 <path d="M685 699 c-4 -6 -5 -12 -2 -15 2 -3 7 2 10 11 7 17 1 20 -8 4z"/>
 <path d="M765 699 c-75 -7 -70 -10 20 -10 102 -1 115 0 115 9 0 8 -53 9 -135 1z"/>
 <path d="M1053 703 c20 -2 54 -2 75 0 20 2 3 4 -38 4 -41 0 -58 -2 -37 -4z"/>
 <path d="M540 690 c0 -5 7 -10 15 -10 8 0 15 5 15 10 0 6 -7 10 -15 10 -8 0 -15 -4 -15 -10z"/>
 <path d="M3550 680 c6 -11 13 -20 16 -20 2 0 0 9 -6 20 -6 11 -13 20 -16 20 -2 0 0 -9 6 -20z"/>
 <path d="M2353 684 c9 -9 147 -10 147 -1 0 4 -34 7 -77 7 -42 0 -74 -3 -70 -6z"/>
 <path d="M2210 665 c0 -8 2 -15 4 -15 2 0 6 7 10 15 3 8 1 15 -4 15 -6 0 -10 -7 -10 -15z"/>
 <path d="M2645 670 c3 -5 8 -10 11 -10 2 0 4 5 4 10 0 6 -5 10 -11 10 -5 0 -7 -4 -4 -10z"/>
 <path d="M1159 663 c-13 -27 24 -54 57 -42 12 4 25 5 28 2 3 -4 6 1 6 10 0 22 -19 32 -57 32 -18 0 -34 -1 -34 -2z"/>
 <path d="M2397 653 c-4 -3 -7 -17 -7 -30 0 -14 -6 -23 -16 -23 -12 0 -15 6 -11 21 5 20 3 19 -23 -6 -31 -29 -45 -80 -35 -125 6 -26 9 -28 30 -20 17 6 27 5 35 -5 10 -12 9 -16 -4 -21 -9 -3 -24 -3 -33 0 -15 6 -14 4 2 -14 10 -11 21 -17 24 -13 12 16 31 12 31 -5 0 -26 10 -33 26 -18 9 9 12 34 9 80 -2 36 1 68 6 72 6 3 26 -10 45 -30 19 -20 46 -39 59 -42 14 -3 25 -11 25 -18 0 -6 5 -4 10 4 14 21 12 30 -5 30 -8 0 -15 7 -15 15 0 24 4 30 18 27 14 -3 16 26 3 46 -6 10 -10 8 -14 -10 -6 -21 -8 -22 -23 -6 -18 18 -12 38 12 38 18 0 10 16 -16 30 -15 8 -17 7 -13 -11 5 -17 2 -20 -13 -17 -12 2 -20 13 -22 31 -4 32 -18 36 -27 7 -3 -11 -11 -20 -17 -20 -5 0 -12 9 -15 20 -5 21 -15 25 -26 13z m-46 -65 c1 -7 0 -17 -1 -23 -1 -5 -3 -26 -3 -45 -2 -24 -7 -35 -17 -35 -10 0 -14 8 -12 25 1 14 2 36 2 49 0 12 3 27 6 32 8 13 24 11 25 -3z"/>
 <path d="M2551 634 c33 -36 49 -67 49 -93 0 -12 4 -21 10 -21 11 0 -13 85 -31 106 -7 8 -22 20 -33 26 -18 9 -17 6 5 -18z"/>
 <path d="M2590 654 c0 -6 7 -19 16 -30 14 -18 14 -18 3 6 -14 31 -19 36 -19 24z"/>
 <path d="M2630 620 c0 -7 3 -10 7 -7 3 4 3 10 0 14 -4 3 -7 0 -7 -7z"/>
 <path d="M2212 600 c0 -14 2 -19 5 -12 2 6 2 18 0 25 -3 6 -5 1 -5 -13z"/>
 <path d="M3564 595 c-4 -8 -10 -12 -16 -9 -5 3 2 -17 16 -44 29 -58 38 -66 66 -57 26 8 25 35 -1 69 -11 14 -17 26 -13 26 10 0 -28 29 -39 30 -4 0 -10 -7 -13 -15z"/>
 <path d="M2620 590 c0 -5 5 -10 11 -10 5 0 7 5 4 10 -3 6 -8 10 -11 10 -2 0 -4 -4 -4 -10z"/>
 <path d="M2890 582 c0 -23 61 -61 95 -60 36 1 50 18 16 18 -10 0 -39 12 -65 26 -25 14 -46 21 -46 16z"/>
 <path d="M2211 534 c1 -21 5 -50 10 -64 5 -16 6 -4 2 35 -6 70 -13 86 -12 29z"/>
 <path d="M3785 503 c-27 -30 -31 -43 -14 -43 13 0 34 20 42 40 4 11 6 10 7 -5 1 -18 1 -19 11 -2 10 18 5 37 -11 37 -5 0 -21 -12 -35 -27z"/>
 <path d="M660 475 c0 -18 -5 -37 -10 -40 -11 -7 2 -38 30 -70 20 -23 34 -85 20 -85 -5 0 1 -10 13 -23 19 -21 24 -22 35 -8 18 22 15 37 -13 67 -14 15 -25 30 -25 33 0 3 16 21 35 40 40 38 44 60 15 68 -11 3 -20 10 -20 17 0 6 -5 4 -10 -4 -12 -19 -13 -53 -1 -45 5 3 12 1 16 -5 12 -19 -26 -23 -46 -4 -15 13 -20 28 -17 51 3 20 -1 34 -9 37 -9 4 -13 -5 -13 -29z"/>
 <path d="M2282 478 c6 -18 17 -40 25 -48 11 -12 11 -8 -1 15 -9 17 -16 35 -16 42 0 6 -4 14 -10 18 -5 3 -5 -8 2 -27z"/>
 <path d="M2459 453 c-6 -57 -1 -72 21 -66 10 3 16 11 14 18 -7 17 16 31 25 16 5 -8 13 -7 27 4 16 13 16 14 2 9 -10 -3 -18 -1 -18 5 0 6 -5 11 -12 11 -6 0 -22 9 -34 21 l-22 20 -3 -38z"/>
 <path d="M2610 459 c0 -11 -5 -30 -11 -42 -10 -20 -10 -20 4 -7 18 19 31 70 17 70 -5 0 -10 -9 -10 -21z"/>
 <path d="M3653 460 c-13 -5 -20 -16 -19 -27 2 -10 -1 -21 -7 -24 -5 -4 -7 -14 -4 -23 8 -21 63 -21 71 -1 7 19 -3 45 -16 45 -6 0 -8 9 -5 20 3 11 4 20 4 19 -1 0 -12 -4 -24 -9z"/>
 <path d="M640 450 c0 -7 3 -10 7 -7 3 4 3 10 0 14 -4 3 -7 0 -7 -7z"/>
 <path d="M2360 365 c0 -8 2 -15 4 -15 2 0 6 7 10 15 3 8 1 15 -4 15 -6 0 -10 -7 -10 -15z"/>
 <path d="M2505 370 c-3 -5 3 -10 15 -10 12 0 18 5 15 10 -3 6 -10 10 -15 10 -5 0 -12 -4 -15 -10z"/>
 <path d="M540 346 c0 -15 5 -36 10 -47 13 -23 73 -56 77 -42 2 6 16 8 31 5 26 -5 26 -5 11 18 -9 13 -29 28 -45 33 -16 5 -41 21 -56 35 l-28 26 0 -28z"/>
 <path d="M633 343 c4 -3 10 -3 14 0 3 4 0 7 -7 7 -7 0 -10 -3 -7 -7z"/>
 <path d="M2471 334 c0 -11 3 -14 6 -6 3 7 2 16 -1 19 -3 4 -6 -2 -5 -13z"/>
 <path d="M3672 343 c-15 -6 13 -59 37 -68 23 -9 34 10 20 36 -18 35 -31 43 -57 32z"/>
 <path d="M3731 249 c-20 -8 -22 -11 -10 -26 13 -15 14 -15 17 0 2 10 8 17 13 17 5 0 8 -3 7 -7 -2 -7 51 -93 57 -93 2 0 -9 27 -23 60 -15 33 -29 60 -32 59 -3 0 -16 -5 -29 -10z"/>
 <path d="M693 233 c4 -3 10 -3 14 0 3 4 0 7 -7 7 -7 0 -10 -3 -7 -7z"/>
 <path d="M2173 202 c-137 -2 -179 -12 -112 -26 17 -3 99 -6 181 -6 137 0 149 1 146 18 -4 19 4 19 -215 14z"/>
 <path d="M1416 185 c4 -8 8 -15 10 -15 2 0 4 7 4 15 0 8 -4 15 -10 15 -5 0 -7 -7 -4 -15z"/>
 <path d="M1633 192 c-154 -2 -163 -4 -174 -24 l-11 -21 233 6 c246 6 279 10 279 34 0 11 -16 13 -82 11 -46 -2 -156 -4 -245 -6z"/>
 <path d="M1990 184 c0 -8 5 -12 10 -9 6 4 8 11 5 16 -9 14 -15 11 -15 -7z"/>
 <path d="M2042 130 c0 -14 2 -19 5 -12 2 6 2 18 0 25 -3 6 -5 1 -5 -13z"/>
 <path d="M2481 134 c0 -11 3 -14 6 -6 3 7 2 16 -1 19 -3 4 -6 -2 -5 -13z"/>
 <path d="M1900 132 c0 -7 -40 -9 -322 -11 -87 -1 -128 -5 -128 -12 0 -8 14 -9 43 -5 23 3 129 6 235 7 155 1 192 4 192 15 0 8 -4 14 -10 14 -5 0 -10 -3 -10 -8z"/>
 <path d="M2080 123 c0 -8 4 -12 8 -9 5 3 79 6 164 7 85 0 161 5 169 10 9 6 -51 9 -163 8 -147 -1 -178 -4 -178 -16z"/>
 <path d="M1970 120 c0 -5 14 -10 31 -10 17 0 28 4 24 10 -3 6 -17 10 -31 10 -13 0 -24 -4 -24 -10z"/>
 <path d="M3611 2314 c0 -11 3 -14 6 -6 3 7 2 16 -1 19 -3 4 -6 -2 -5 -13z"/>
 <path d="M3710 2310 c0 -7 3 -10 7 -7 3 4 3 10 0 14 -4 3 -7 0 -7 -7z"/>
 <path d="M3751 2284 c0 -11 3 -14 6 -6 3 7 2 16 -1 19 -3 4 -6 -2 -5 -13z"/>
 <path d="M3780 2244 c0 -11 7 -29 15 -40 19 -25 19 -15 0 27 -10 25 -14 29 -15 13z"/>
 <path d="M1597 2359 c-52 -36 -70 -59 -49 -59 5 0 35 16 68 36 32 20 73 42 89 50 30 14 14 13 -37 -3 -15 -4 -19 -3 -14 5 11 19 3 15 -57 -29z"/>
 <path d="M1437 2253 c-27 -15 -44 -29 -37 -31 10 -4 90 43 90 53 0 7 -1 7 -53 -22z"/>
 <path d="M2575 2310 c-3 -5 1 -10 9 -10 9 0 16 5 16 10 0 6 -4 10 -9 10 -6 0 -13 -4 -16 -10z"/>
 <path d="M2493 2263 c4 -3 10 -3 14 0 3 4 0 7 -7 7 -7 0 -10 -3 -7 -7z"/>
 <path d="M2368 2203 c-63 -34 -52 -48 12 -17 28 14 48 29 45 34 -3 6 -7 10 -8 9 -1 0 -23 -12 -49 -26z"/>
 <path d="M963 2023 c4 -3 10 -3 14 0 3 4 0 7 -7 7 -7 0 -10 -3 -7 -7z"/>
 <path d="M503 553 c4 -3 10 -3 14 0 3 4 0 7 -7 7 -7 0 -10 -3 -7 -7z"/>
 <path d="M310 401 c0 -12 5 -21 10 -21 6 0 10 6 10 14 0 8 -4 18 -10 21 -5 3 -10 -3 -10 -14z"/>
 <path d="M271 245 c-44 -51 -41 -75 18 -124 27 -23 53 -41 57 -41 5 0 30 24 56 54 l47 53 -49 47 c-60 57 -86 59 -129 11z m69 15 c0 -5 -4 -10 -10 -10 -5 0 -10 5 -10 10 0 6 5 10 10 10 6 0 10 -4 10 -10z m-45 -40 c-5 -8 -11 -8 -17 -2 -6 6 -7 16 -3 22 5 8 11 8 17 2 6 -6 7 -16 3 -22z m72 -7 c-4 -3 -7 0 -7 7 0 7 3 10 7 7 3 -4 3 -10 0 -14z m-32 -22 c3 -5 1 -12 -5 -16 -5 -3 -10 1 -10 9 0 18 6 21 15 7z m-65 -11 c0 -5 -4 -10 -10 -10 -5 0 -10 5 -10 10 0 6 5 10 10 10 6 0 10 -4 10 -10z m117 -37 c-4 -3 -7 0 -7 7 0 7 3 10 7 7 3 -4 3 -10 0 -14z m-77 -3 c0 -5 -4 -10 -10 -10 -5 0 -10 5 -10 10 0 6 5 10 10 10 6 0 10 -4 10 -10z m31 -33 c-1 -12 -15 -9 -19 4 -3 6 1 10 8 8 6 -3 11 -8 11 -12z"/>
 <path d="M3810 2320 c0 -7 3 -10 7 -7 3 4 3 10 0 14 -4 3 -7 0 -7 -7z"/>
 <path d="M4031 2240 c-1 -41 32 -103 56 -105 17 -1 20 2 13 19 -4 12 -16 21 -26 21 -14 0 -22 12 -31 45 -7 29 -12 36 -12 20z"/>
 <path d="M3991 2234 c0 -11 3 -14 6 -6 3 7 2 16 -1 19 -3 4 -6 -2 -5 -13z"/>
 <path d="M4001 2194 c0 -11 3 -14 6 -6 3 7 2 16 -1 19 -3 4 -6 -2 -5 -13z"/>
 <path d="M4101 2054 c0 -11 3 -14 6 -6 3 7 2 16 -1 19 -3 4 -6 -2 -5 -13z"/>
 <path d="M3670 2000 c6 -11 13 -20 16 -20 2 0 0 9 -6 20 -6 11 -13 20 -16 20 -2 0 0 -9 6 -20z"/>
 <path d="M3733 1829 c21 -29 97 -92 103 -86 3 3 -4 14 -16 24 -13 10 -38 33 -56 51 -38 36 -52 42 -31 11z"/>
 <path d="M4071 1425 c-13 -14 -33 -26 -45 -27 -11 -1 -30 -3 -41 -4 -11 -1 -24 -2 -30 -3 -5 -1 0 -7 11 -15 16 -12 29 -12 71 -3 28 7 55 16 60 21 5 5 3 6 -4 2 -7 -4 -13 -3 -13 2 0 6 7 12 15 16 15 5 21 36 8 36 -5 0 -19 -12 -32 -25z"/>
 </g>

</svg>